<?xml version="1.0" encoding="utf-8"?>
<!-- Generator: Adobe Illustrator 15.0.0, SVG Export Plug-In . SVG Version: 6.00 Build 0)  -->
<!DOCTYPE svg PUBLIC "-//W3C//DTD SVG 1.1//EN" "http://www.w3.org/Graphics/SVG/1.1/DTD/svg11.dtd">
<svg version="1.1" id="Layer_1" xmlns="http://www.w3.org/2000/svg" xmlns:xlink="http://www.w3.org/1999/xlink" x="0px" y="0px"
	 width="556px" height="80.667px" viewBox="0 0 556 80.667" enable-background="new 0 0 556 80.667" xml:space="preserve">
<g>
	<path fill="#4D4D4D" d="M458.872,64.145c0,0.172-0.028,0.323-0.084,0.452c-0.057,0.129-0.179,0.237-0.366,0.323
		c-0.188,0.085-0.45,0.15-0.788,0.194c-0.338,0.042-0.788,0.064-1.351,0.064c-0.488,0-0.887-0.022-1.196-0.064
		c-0.31-0.043-0.559-0.113-0.745-0.21c-0.188-0.097-0.334-0.231-0.437-0.404c-0.104-0.172-0.192-0.388-0.268-0.646l-3.349-9.853
		c-0.394-1.119-0.802-2.148-1.224-3.084c-0.422-0.937-0.925-1.745-1.506-2.423c-0.582-0.678-1.267-1.206-2.054-1.583
		c-0.788-0.376-1.735-0.565-2.843-0.565h-3.235v17.798c0,0.172-0.043,0.323-0.127,0.452c-0.085,0.129-0.216,0.232-0.395,0.307
		c-0.178,0.076-0.422,0.14-0.731,0.194c-0.31,0.053-0.699,0.081-1.168,0.081s-0.857-0.027-1.167-0.081
		c-0.31-0.054-0.559-0.118-0.746-0.194c-0.188-0.075-0.319-0.178-0.394-0.307c-0.075-0.129-0.113-0.28-0.113-0.452V25.446
		c0-0.84,0.192-1.426,0.577-1.76c0.384-0.333,0.792-0.5,1.224-0.5h7.739c0.919,0,1.684,0.027,2.293,0.081
		c0.609,0.054,1.158,0.113,1.646,0.178c1.407,0.28,2.649,0.722,3.729,1.324c1.078,0.603,1.983,1.368,2.716,2.293
		c0.731,0.926,1.28,1.987,1.646,3.182c0.366,1.195,0.549,2.515,0.549,3.957c0,1.4-0.164,2.654-0.492,3.763
		c-0.328,1.109-0.802,2.089-1.421,2.94s-1.36,1.588-2.224,2.212c-0.863,0.625-1.829,1.152-2.898,1.583
		c0.601,0.302,1.145,0.684,1.633,1.146c0.487,0.463,0.942,1.018,1.364,1.664s0.82,1.389,1.196,2.229
		c0.375,0.84,0.75,1.788,1.125,2.843l3.265,9.206c0.263,0.775,0.432,1.319,0.507,1.631C458.834,63.73,458.872,63.972,458.872,64.145
		z M451.584,34.782c0-1.636-0.319-3.02-0.957-4.151c-0.638-1.13-1.707-1.943-3.208-2.438c-0.469-0.15-0.999-0.259-1.59-0.323
		s-1.365-0.097-2.321-0.097h-4.08v14.083h4.728c1.275,0,2.377-0.178,3.306-0.533c0.929-0.355,1.703-0.851,2.322-1.486
		c0.619-0.635,1.073-1.383,1.364-2.245S451.584,35.794,451.584,34.782z"/>
	<path fill="#4D4D4D" d="M487.842,59.073c0,0.345-0.01,0.646-0.028,0.904s-0.052,0.484-0.099,0.678s-0.108,0.367-0.183,0.517
		c-0.075,0.151-0.207,0.334-0.395,0.549c-0.188,0.216-0.581,0.544-1.182,0.985c-0.601,0.442-1.346,0.872-2.237,1.292
		c-0.891,0.42-1.913,0.775-3.067,1.066c-1.153,0.291-2.415,0.436-3.784,0.436c-2.364,0-4.498-0.452-6.402-1.356
		s-3.527-2.239-4.868-4.005c-1.341-1.766-2.373-3.946-3.096-6.542c-0.722-2.595-1.083-5.583-1.083-8.964
		c0-3.467,0.39-6.557,1.168-9.271s1.871-5.012,3.278-6.896c1.407-1.884,3.091-3.322,5.051-4.313c1.96-0.99,4.132-1.486,6.515-1.486
		c1.051,0,2.073,0.113,3.067,0.339s1.913,0.512,2.758,0.856c0.844,0.345,1.594,0.743,2.251,1.195
		c0.656,0.452,1.111,0.823,1.365,1.114c0.253,0.291,0.417,0.512,0.492,0.662c0.074,0.151,0.136,0.329,0.183,0.533
		s0.085,0.447,0.112,0.727c0.028,0.28,0.043,0.614,0.043,1.001c0,0.431-0.02,0.797-0.057,1.098c-0.038,0.302-0.095,0.555-0.17,0.759
		c-0.076,0.205-0.165,0.355-0.269,0.452c-0.104,0.097-0.231,0.146-0.383,0.146c-0.264,0-0.632-0.21-1.103-0.63
		c-0.472-0.42-1.08-0.883-1.825-1.389c-0.745-0.506-1.65-0.969-2.716-1.389s-2.344-0.63-3.833-0.63
		c-1.622,0-3.098,0.372-4.428,1.115c-1.329,0.743-2.466,1.836-3.409,3.278c-0.942,1.443-1.674,3.204-2.192,5.282
		s-0.777,4.453-0.777,7.123c0,2.649,0.249,4.991,0.749,7.026c0.5,2.035,1.217,3.736,2.15,5.104c0.934,1.368,2.079,2.401,3.437,3.101
		c1.358,0.7,2.896,1.05,4.612,1.05c1.451,0,2.72-0.205,3.804-0.614c1.085-0.409,2.009-0.867,2.772-1.373
		c0.764-0.505,1.391-0.963,1.882-1.373c0.49-0.409,0.877-0.614,1.16-0.614c0.132,0,0.245,0.032,0.339,0.097
		c0.094,0.065,0.17,0.189,0.227,0.372c0.057,0.183,0.099,0.436,0.127,0.759C487.827,58.168,487.842,58.578,487.842,59.073z"/>
	<path fill="#4D4D4D" d="M518.639,64.145c0,0.172-0.037,0.323-0.112,0.452c-0.075,0.129-0.207,0.232-0.394,0.307
		c-0.188,0.076-0.437,0.14-0.746,0.194c-0.31,0.053-0.689,0.081-1.14,0.081c-0.488,0-0.882-0.027-1.182-0.081
		c-0.301-0.054-0.545-0.118-0.732-0.194c-0.188-0.075-0.318-0.178-0.394-0.307c-0.075-0.129-0.112-0.28-0.112-0.452V45.603h-16.574
		v18.542c0,0.172-0.038,0.323-0.113,0.452c-0.075,0.129-0.206,0.232-0.394,0.307c-0.188,0.076-0.437,0.14-0.746,0.194
		c-0.31,0.053-0.699,0.081-1.168,0.081c-0.45,0-0.835-0.027-1.153-0.081c-0.319-0.054-0.572-0.118-0.76-0.194
		c-0.188-0.075-0.319-0.178-0.394-0.307c-0.075-0.129-0.113-0.28-0.113-0.452V24.025c0-0.172,0.038-0.323,0.113-0.453
		c0.074-0.129,0.206-0.231,0.394-0.307c0.188-0.075,0.44-0.14,0.76-0.194c0.318-0.054,0.703-0.081,1.153-0.081
		c0.469,0,0.858,0.027,1.168,0.081c0.31,0.054,0.559,0.119,0.746,0.194c0.188,0.076,0.318,0.178,0.394,0.307
		c0.075,0.129,0.113,0.28,0.113,0.453v16.732h16.574V24.025c0-0.172,0.037-0.323,0.112-0.453c0.075-0.129,0.206-0.231,0.394-0.307
		c0.188-0.075,0.432-0.14,0.732-0.194c0.3-0.054,0.693-0.081,1.182-0.081c0.45,0,0.83,0.027,1.14,0.081
		c0.31,0.054,0.558,0.119,0.746,0.194c0.187,0.076,0.318,0.178,0.394,0.307c0.075,0.129,0.112,0.28,0.112,0.453V64.145z"/>
	<path fill="#4D4D4D" d="M538.068,48.736v15.408c0,0.172-0.037,0.323-0.112,0.452c-0.074,0.129-0.205,0.232-0.392,0.307
		c-0.187,0.076-0.438,0.14-0.755,0.194c-0.317,0.053-0.699,0.081-1.147,0.081c-0.466,0-0.853-0.027-1.161-0.081
		c-0.308-0.054-0.56-0.118-0.755-0.194c-0.196-0.075-0.331-0.178-0.406-0.307c-0.074-0.129-0.111-0.28-0.111-0.452V48.736
		L522.93,25.156c-0.207-0.495-0.334-0.883-0.38-1.163c-0.048-0.279,0-0.495,0.141-0.646c0.141-0.15,0.394-0.247,0.76-0.291
		c0.365-0.043,0.857-0.064,1.477-0.064c0.563,0,1.018,0.021,1.365,0.064c0.347,0.043,0.623,0.103,0.83,0.178
		c0.206,0.076,0.361,0.183,0.464,0.323c0.104,0.141,0.202,0.318,0.296,0.533l5.037,12.017c0.468,1.142,0.935,2.336,1.4,3.585
		s0.941,2.509,1.427,3.779h0.057c0.429-1.228,0.871-2.45,1.328-3.667c0.457-1.216,0.92-2.417,1.388-3.602l5.065-12.081
		c0.057-0.215,0.136-0.398,0.239-0.549c0.103-0.15,0.243-0.263,0.422-0.339c0.179-0.075,0.427-0.134,0.746-0.178
		c0.318-0.043,0.722-0.064,1.21-0.064c0.675,0,1.205,0.027,1.59,0.081c0.384,0.054,0.651,0.156,0.802,0.307
		c0.15,0.151,0.201,0.367,0.155,0.646c-0.048,0.28-0.174,0.657-0.38,1.13L538.068,48.736z"/>
</g>
<g>
	<path fill="#4D4D4D" d="M31.169,62.107c0,0.512-0.022,0.94-0.067,1.285c-0.045,0.345-0.117,0.64-0.217,0.882
		c-0.1,0.243-0.223,0.422-0.367,0.537C30.373,64.927,30.2,64.984,30,64.984H10.886c-0.513,0-0.997-0.198-1.454-0.595
		c-0.457-0.396-0.685-1.093-0.685-2.09V16.345c0-0.204,0.044-0.383,0.134-0.537c0.089-0.153,0.245-0.274,0.468-0.364
		c0.222-0.089,0.523-0.166,0.902-0.23c0.378-0.063,0.835-0.096,1.37-0.096c0.557,0,1.019,0.033,1.387,0.096
		c0.368,0.064,0.663,0.141,0.885,0.23c0.223,0.09,0.379,0.211,0.468,0.364c0.089,0.154,0.134,0.333,0.134,0.537v42.924H30
		c0.2,0,0.373,0.058,0.518,0.172c0.145,0.115,0.267,0.282,0.367,0.499c0.101,0.218,0.172,0.505,0.217,0.863
		C31.147,61.162,31.169,61.596,31.169,62.107z"/>
	<path fill="#4D4D4D" d="M39.261,64.145c0,0.172-0.038,0.323-0.113,0.452c-0.075,0.129-0.207,0.232-0.394,0.307
		c-0.188,0.076-0.437,0.14-0.746,0.194c-0.309,0.053-0.699,0.081-1.167,0.081c-0.45,0-0.835-0.027-1.154-0.081
		c-0.319-0.054-0.573-0.118-0.76-0.194c-0.188-0.075-0.319-0.178-0.394-0.307c-0.075-0.129-0.112-0.28-0.112-0.452V24.025
		c0-0.172,0.042-0.323,0.126-0.453c0.084-0.129,0.225-0.231,0.422-0.307c0.197-0.075,0.45-0.14,0.76-0.194
		c0.31-0.054,0.68-0.081,1.112-0.081c0.469,0,0.858,0.027,1.167,0.081c0.31,0.054,0.558,0.119,0.746,0.194
		c0.187,0.076,0.319,0.178,0.394,0.307c0.075,0.129,0.113,0.28,0.113,0.453V64.145z"/>
	<path fill="#4D4D4D" d="M69.919,25.576c0,0.409-0.019,0.765-0.056,1.066c-0.038,0.302-0.099,0.544-0.183,0.727
		s-0.188,0.318-0.31,0.404s-0.258,0.129-0.408,0.129H58.719v36.243c0,0.172-0.038,0.323-0.112,0.452
		c-0.075,0.129-0.207,0.232-0.394,0.307c-0.188,0.076-0.437,0.14-0.746,0.194c-0.309,0.053-0.699,0.081-1.167,0.081
		c-0.45,0-0.835-0.027-1.154-0.081c-0.319-0.054-0.572-0.118-0.76-0.194c-0.188-0.075-0.319-0.178-0.394-0.307
		c-0.075-0.129-0.112-0.28-0.112-0.452V27.901H43.636c-0.15,0-0.286-0.043-0.408-0.129s-0.221-0.221-0.295-0.404
		c-0.075-0.183-0.136-0.425-0.183-0.727c-0.047-0.301-0.071-0.657-0.071-1.066c0-0.409,0.023-0.77,0.071-1.082
		c0.046-0.312,0.107-0.565,0.183-0.759c0.075-0.194,0.173-0.333,0.295-0.42c0.122-0.086,0.258-0.129,0.408-0.129h25.326
		c0.15,0,0.286,0.043,0.408,0.129c0.122,0.086,0.225,0.226,0.31,0.42s0.145,0.447,0.183,0.759
		C69.9,24.806,69.919,25.167,69.919,25.576z"/>
	<path fill="#4D4D4D" d="M93.598,62.691c0,0.388-0.019,0.727-0.057,1.018c-0.038,0.291-0.103,0.533-0.197,0.727
		c-0.094,0.194-0.202,0.334-0.324,0.42c-0.122,0.086-0.258,0.129-0.408,0.129H75.138c-0.432,0-0.84-0.167-1.224-0.5
		c-0.385-0.334-0.577-0.921-0.577-1.761V25.446c0-0.84,0.192-1.426,0.577-1.76c0.384-0.333,0.792-0.5,1.224-0.5h17.278
		c0.15,0,0.286,0.043,0.408,0.129c0.122,0.086,0.22,0.226,0.295,0.42c0.075,0.194,0.136,0.436,0.183,0.727
		c0.046,0.291,0.07,0.651,0.07,1.082c0,0.388-0.024,0.727-0.07,1.018c-0.047,0.291-0.108,0.528-0.183,0.71
		c-0.075,0.183-0.174,0.318-0.295,0.404c-0.122,0.086-0.258,0.129-0.408,0.129H78.177v13.115H90.39c0.15,0,0.286,0.048,0.408,0.145
		c0.122,0.097,0.226,0.232,0.31,0.404c0.084,0.173,0.146,0.41,0.183,0.711c0.038,0.302,0.056,0.657,0.056,1.066
		c0,0.388-0.019,0.722-0.056,1.001s-0.099,0.506-0.183,0.678c-0.084,0.172-0.188,0.296-0.31,0.372
		c-0.122,0.076-0.258,0.113-0.408,0.113H78.177v14.956h14.436c0.15,0,0.286,0.043,0.408,0.129c0.122,0.086,0.229,0.221,0.324,0.404
		c0.094,0.184,0.159,0.42,0.197,0.711C93.579,61.899,93.598,62.26,93.598,62.691z"/>
	<path fill="#4D4D4D" d="M123.918,64.145c0,0.172-0.028,0.323-0.084,0.452c-0.056,0.129-0.179,0.237-0.366,0.323
		c-0.188,0.085-0.45,0.15-0.788,0.194c-0.337,0.042-0.788,0.064-1.351,0.064c-0.488,0-0.886-0.022-1.196-0.064
		c-0.31-0.043-0.559-0.113-0.746-0.21c-0.188-0.097-0.333-0.231-0.436-0.404c-0.104-0.172-0.192-0.388-0.267-0.646l-3.349-9.853
		c-0.394-1.119-0.802-2.148-1.224-3.084c-0.422-0.937-0.924-1.745-1.506-2.423s-1.266-1.206-2.054-1.583
		c-0.788-0.376-1.735-0.565-2.842-0.565h-3.236v17.798c0,0.172-0.042,0.323-0.126,0.452c-0.084,0.129-0.216,0.232-0.394,0.307
		c-0.179,0.076-0.422,0.14-0.732,0.194c-0.309,0.053-0.699,0.081-1.167,0.081c-0.469,0-0.858-0.027-1.168-0.081
		c-0.31-0.054-0.559-0.118-0.746-0.194c-0.188-0.075-0.319-0.178-0.394-0.307c-0.075-0.129-0.112-0.28-0.112-0.452V25.446
		c0-0.84,0.192-1.426,0.577-1.76c0.384-0.333,0.792-0.5,1.224-0.5h7.738c0.919,0,1.684,0.027,2.293,0.081
		c0.609,0.054,1.158,0.113,1.646,0.178c1.407,0.28,2.649,0.722,3.729,1.324c1.079,0.603,1.984,1.368,2.715,2.293
		c0.732,0.926,1.28,1.987,1.646,3.182c0.366,1.195,0.548,2.515,0.548,3.957c0,1.4-0.164,2.654-0.492,3.763
		c-0.329,1.109-0.802,2.089-1.421,2.94c-0.619,0.851-1.36,1.588-2.223,2.212c-0.863,0.625-1.829,1.152-2.898,1.583
		c0.6,0.302,1.144,0.684,1.632,1.146c0.488,0.463,0.943,1.018,1.365,1.664c0.422,0.646,0.821,1.389,1.196,2.229
		c0.375,0.84,0.75,1.788,1.125,2.843l3.264,9.206c0.263,0.775,0.431,1.319,0.506,1.631C123.88,63.73,123.918,63.972,123.918,64.145z
		 M116.63,34.782c0-1.636-0.319-3.02-0.957-4.151c-0.638-1.13-1.707-1.943-3.208-2.438c-0.469-0.15-0.999-0.259-1.59-0.323
		s-1.365-0.097-2.322-0.097h-4.08v14.083h4.728c1.275,0,2.378-0.178,3.307-0.533c0.928-0.355,1.702-0.851,2.321-1.486
		c0.619-0.635,1.074-1.383,1.365-2.245C116.484,36.731,116.63,35.794,116.63,34.782z"/>
	<path fill="#4D4D4D" d="M156.348,63.014c0.15,0.474,0.229,0.856,0.239,1.146c0.009,0.291-0.061,0.512-0.211,0.662
		c-0.15,0.151-0.398,0.248-0.746,0.291c-0.347,0.042-0.812,0.064-1.393,0.064s-1.046-0.016-1.393-0.048
		c-0.348-0.032-0.61-0.086-0.788-0.162s-0.31-0.178-0.394-0.307c-0.084-0.129-0.165-0.291-0.239-0.484L148.3,54.001h-15.139
		l-2.983,10.046c-0.056,0.193-0.131,0.361-0.225,0.5c-0.094,0.14-0.23,0.258-0.408,0.355c-0.178,0.097-0.432,0.167-0.76,0.21
		c-0.328,0.042-0.755,0.064-1.28,0.064c-0.544,0-0.99-0.027-1.336-0.081c-0.348-0.054-0.591-0.156-0.732-0.307
		c-0.141-0.15-0.207-0.372-0.197-0.662c0.009-0.291,0.089-0.673,0.239-1.147l12.213-38.827c0.075-0.237,0.173-0.431,0.295-0.582
		c0.122-0.15,0.3-0.269,0.535-0.355c0.234-0.086,0.535-0.146,0.9-0.178s0.83-0.048,1.393-0.048c0.6,0,1.097,0.016,1.491,0.048
		s0.713,0.092,0.957,0.178s0.432,0.21,0.563,0.371c0.131,0.162,0.234,0.361,0.31,0.598L156.348,63.014z M140.674,28.741h-0.028
		l-6.275,20.835h12.663L140.674,28.741z"/>
	<path fill="#4D4D4D" d="M178.902,25.576c0,0.409-0.019,0.765-0.056,1.066c-0.038,0.302-0.099,0.544-0.183,0.727
		s-0.188,0.318-0.31,0.404s-0.258,0.129-0.408,0.129h-10.243v36.243c0,0.172-0.038,0.323-0.112,0.452
		c-0.075,0.129-0.207,0.232-0.394,0.307c-0.188,0.076-0.437,0.14-0.746,0.194c-0.309,0.053-0.699,0.081-1.167,0.081
		c-0.45,0-0.835-0.027-1.154-0.081c-0.319-0.054-0.572-0.118-0.76-0.194c-0.188-0.075-0.319-0.178-0.394-0.307
		c-0.075-0.129-0.112-0.28-0.112-0.452V27.901h-10.243c-0.15,0-0.286-0.043-0.408-0.129s-0.221-0.221-0.295-0.404
		c-0.075-0.183-0.136-0.425-0.183-0.727c-0.047-0.301-0.071-0.657-0.071-1.066c0-0.409,0.023-0.77,0.071-1.082
		c0.046-0.312,0.107-0.565,0.183-0.759c0.075-0.194,0.173-0.333,0.295-0.42c0.122-0.086,0.258-0.129,0.408-0.129h25.326
		c0.15,0,0.286,0.043,0.408,0.129c0.122,0.086,0.225,0.226,0.31,0.42s0.145,0.447,0.183,0.759
		C178.883,24.806,178.902,25.167,178.902,25.576z"/>
	<path fill="#4D4D4D" d="M209.7,49.544c0,2.541-0.323,4.808-0.971,6.8c-0.647,1.992-1.571,3.677-2.772,5.055
		c-1.201,1.378-2.664,2.422-4.39,3.133c-1.726,0.71-3.687,1.066-5.881,1.066c-2.007,0-3.836-0.334-5.487-1.001
		c-1.651-0.667-3.067-1.652-4.249-2.956c-1.182-1.303-2.092-2.934-2.729-4.894c-0.638-1.959-0.957-4.22-0.957-6.783V24.025
		c0-0.172,0.038-0.323,0.113-0.453c0.075-0.129,0.206-0.231,0.394-0.307c0.187-0.075,0.431-0.14,0.731-0.194
		c0.3-0.054,0.694-0.081,1.182-0.081c0.45,0,0.834,0.027,1.153,0.081c0.319,0.054,0.567,0.119,0.746,0.194
		c0.178,0.076,0.305,0.178,0.38,0.307c0.075,0.129,0.112,0.28,0.112,0.453v25.26c0,1.938,0.206,3.629,0.619,5.071
		c0.413,1.443,1.008,2.644,1.787,3.602c0.778,0.958,1.716,1.68,2.814,2.165c1.097,0.484,2.331,0.727,3.7,0.727
		c1.407,0,2.659-0.237,3.757-0.71c1.097-0.474,2.026-1.184,2.786-2.132s1.341-2.121,1.745-3.521s0.605-3.037,0.605-4.91V24.025
		c0-0.172,0.038-0.323,0.113-0.453c0.075-0.129,0.206-0.231,0.394-0.307c0.187-0.075,0.436-0.14,0.746-0.194
		c0.31-0.054,0.699-0.081,1.168-0.081c0.45,0,0.83,0.027,1.14,0.081c0.31,0.054,0.553,0.119,0.731,0.194
		c0.178,0.076,0.31,0.178,0.394,0.307c0.084,0.129,0.126,0.28,0.126,0.453V49.544z"/>
	<path fill="#4D4D4D" d="M241.737,64.145c0,0.172-0.028,0.323-0.084,0.452c-0.056,0.129-0.179,0.237-0.366,0.323
		c-0.188,0.085-0.45,0.15-0.788,0.194c-0.337,0.042-0.788,0.064-1.351,0.064c-0.488,0-0.886-0.022-1.196-0.064
		c-0.31-0.043-0.559-0.113-0.746-0.21c-0.188-0.097-0.333-0.231-0.436-0.404c-0.104-0.172-0.192-0.388-0.267-0.646l-3.349-9.853
		c-0.394-1.119-0.802-2.148-1.224-3.084c-0.422-0.937-0.924-1.745-1.506-2.423s-1.266-1.206-2.054-1.583
		c-0.788-0.376-1.735-0.565-2.842-0.565h-3.236v17.798c0,0.172-0.042,0.323-0.126,0.452c-0.084,0.129-0.216,0.232-0.394,0.307
		c-0.179,0.076-0.422,0.14-0.732,0.194c-0.309,0.053-0.699,0.081-1.167,0.081c-0.469,0-0.858-0.027-1.168-0.081
		c-0.31-0.054-0.559-0.118-0.746-0.194c-0.188-0.075-0.319-0.178-0.394-0.307c-0.075-0.129-0.112-0.28-0.112-0.452V25.446
		c0-0.84,0.192-1.426,0.577-1.76c0.384-0.333,0.792-0.5,1.224-0.5h7.738c0.919,0,1.684,0.027,2.293,0.081
		c0.609,0.054,1.158,0.113,1.646,0.178c1.407,0.28,2.649,0.722,3.729,1.324c1.079,0.603,1.984,1.368,2.715,2.293
		c0.732,0.926,1.28,1.987,1.646,3.182c0.366,1.195,0.548,2.515,0.548,3.957c0,1.4-0.164,2.654-0.492,3.763
		c-0.329,1.109-0.802,2.089-1.421,2.94c-0.619,0.851-1.36,1.588-2.223,2.212c-0.863,0.625-1.829,1.152-2.898,1.583
		c0.6,0.302,1.144,0.684,1.632,1.146c0.488,0.463,0.943,1.018,1.365,1.664c0.422,0.646,0.821,1.389,1.196,2.229
		c0.375,0.84,0.75,1.788,1.125,2.843l3.264,9.206c0.263,0.775,0.431,1.319,0.506,1.631C241.699,63.73,241.737,63.972,241.737,64.145
		z M234.449,34.782c0-1.636-0.319-3.02-0.957-4.151c-0.638-1.13-1.707-1.943-3.208-2.438c-0.469-0.15-0.999-0.259-1.59-0.323
		s-1.365-0.097-2.322-0.097h-4.08v14.083h4.728c1.275,0,2.378-0.178,3.307-0.533c0.928-0.355,1.702-0.851,2.321-1.486
		c0.619-0.635,1.074-1.383,1.365-2.245C234.303,36.731,234.449,35.794,234.449,34.782z"/>
	<path fill="#4D4D4D" d="M267.161,62.691c0,0.388-0.019,0.727-0.057,1.018c-0.038,0.291-0.103,0.533-0.197,0.727
		c-0.094,0.194-0.202,0.334-0.324,0.42c-0.122,0.086-0.258,0.129-0.408,0.129h-17.475c-0.432,0-0.84-0.167-1.224-0.5
		c-0.385-0.334-0.577-0.921-0.577-1.761V25.446c0-0.84,0.192-1.426,0.577-1.76c0.384-0.333,0.792-0.5,1.224-0.5h17.278
		c0.15,0,0.286,0.043,0.408,0.129c0.122,0.086,0.22,0.226,0.295,0.42c0.075,0.194,0.136,0.436,0.183,0.727
		c0.046,0.291,0.07,0.651,0.07,1.082c0,0.388-0.024,0.727-0.07,1.018c-0.047,0.291-0.108,0.528-0.183,0.71
		c-0.075,0.183-0.174,0.318-0.295,0.404c-0.122,0.086-0.258,0.129-0.408,0.129H251.74v13.115h12.213c0.15,0,0.286,0.048,0.408,0.145
		c0.122,0.097,0.226,0.232,0.31,0.404c0.084,0.173,0.146,0.41,0.183,0.711c0.038,0.302,0.056,0.657,0.056,1.066
		c0,0.388-0.019,0.722-0.056,1.001s-0.099,0.506-0.183,0.678c-0.084,0.172-0.188,0.296-0.31,0.372
		c-0.122,0.076-0.258,0.113-0.408,0.113H251.74v14.956h14.436c0.15,0,0.286,0.043,0.408,0.129c0.122,0.086,0.229,0.221,0.324,0.404
		c0.094,0.184,0.159,0.42,0.197,0.711C267.142,61.899,267.161,62.26,267.161,62.691z"/>
	<path fill="#4D4D4D" d="M316.43,63.987c0,0.205-0.045,0.384-0.134,0.537c-0.089,0.154-0.245,0.275-0.468,0.365
		c-0.223,0.09-0.518,0.166-0.885,0.23c-0.368,0.063-0.819,0.096-1.354,0.096c-0.58,0-1.047-0.032-1.403-0.096
		c-0.357-0.064-0.646-0.14-0.869-0.23c-0.223-0.089-0.379-0.211-0.468-0.365c-0.089-0.153-0.134-0.332-0.134-0.537V41.969h-19.682
		v22.018c0,0.205-0.045,0.384-0.134,0.537c-0.089,0.154-0.245,0.275-0.468,0.365c-0.223,0.09-0.518,0.166-0.885,0.23
		c-0.368,0.063-0.83,0.096-1.387,0.096c-0.535,0-0.992-0.032-1.37-0.096c-0.379-0.064-0.68-0.14-0.902-0.23
		c-0.223-0.089-0.379-0.211-0.468-0.365c-0.089-0.153-0.134-0.332-0.134-0.537V16.345c0-0.204,0.044-0.383,0.134-0.537
		c0.089-0.153,0.245-0.274,0.468-0.364c0.222-0.089,0.523-0.166,0.902-0.23c0.378-0.063,0.835-0.096,1.37-0.096
		c0.557,0,1.019,0.033,1.387,0.096c0.368,0.064,0.663,0.141,0.885,0.23c0.223,0.09,0.379,0.211,0.468,0.364
		c0.089,0.154,0.134,0.333,0.134,0.537v19.87h19.682v-19.87c0-0.204,0.044-0.383,0.134-0.537c0.089-0.153,0.245-0.274,0.468-0.364
		c0.223-0.089,0.512-0.166,0.869-0.23c0.356-0.063,0.824-0.096,1.403-0.096c0.535,0,0.986,0.033,1.354,0.096
		c0.367,0.064,0.663,0.141,0.885,0.23c0.223,0.09,0.378,0.211,0.468,0.364c0.089,0.154,0.134,0.333,0.134,0.537V63.987z"/>
	<path fill="#4D4D4D" d="M329.667,64.145c0,0.172-0.038,0.323-0.113,0.452c-0.075,0.129-0.207,0.232-0.394,0.307
		c-0.188,0.076-0.437,0.14-0.746,0.194c-0.309,0.053-0.699,0.081-1.167,0.081c-0.45,0-0.835-0.027-1.154-0.081
		c-0.319-0.054-0.573-0.118-0.76-0.194c-0.188-0.075-0.319-0.178-0.394-0.307c-0.075-0.129-0.112-0.28-0.112-0.452V24.025
		c0-0.172,0.042-0.323,0.126-0.453c0.084-0.129,0.225-0.231,0.422-0.307c0.197-0.075,0.45-0.14,0.76-0.194
		c0.31-0.054,0.68-0.081,1.112-0.081c0.469,0,0.858,0.027,1.167,0.081c0.31,0.054,0.558,0.119,0.746,0.194
		c0.187,0.076,0.319,0.178,0.394,0.307c0.075,0.129,0.113,0.28,0.113,0.453V64.145z"/>
	<path fill="#4D4D4D" d="M357.765,62.691c0,0.388-0.019,0.727-0.057,1.018c-0.037,0.291-0.104,0.533-0.196,0.727
		c-0.095,0.194-0.202,0.334-0.324,0.42c-0.122,0.086-0.258,0.129-0.408,0.129h-17.475c-0.432,0-0.84-0.167-1.224-0.5
		c-0.385-0.334-0.577-0.921-0.577-1.761V25.446c0-0.84,0.192-1.426,0.577-1.76c0.384-0.333,0.792-0.5,1.224-0.5h17.278
		c0.149,0,0.285,0.043,0.407,0.129c0.122,0.086,0.221,0.226,0.296,0.42s0.136,0.436,0.183,0.727c0.047,0.291,0.07,0.651,0.07,1.082
		c0,0.388-0.023,0.727-0.07,1.018c-0.047,0.291-0.107,0.528-0.183,0.71c-0.075,0.183-0.174,0.318-0.296,0.404
		c-0.122,0.086-0.258,0.129-0.407,0.129h-14.239v13.115h12.213c0.15,0,0.286,0.048,0.408,0.145c0.122,0.097,0.226,0.232,0.31,0.404
		c0.084,0.173,0.146,0.41,0.183,0.711c0.038,0.302,0.056,0.657,0.056,1.066c0,0.388-0.019,0.722-0.056,1.001
		s-0.099,0.506-0.183,0.678c-0.084,0.172-0.188,0.296-0.31,0.372c-0.122,0.076-0.258,0.113-0.408,0.113h-12.213v14.956h14.436
		c0.15,0,0.286,0.043,0.408,0.129c0.122,0.086,0.229,0.221,0.324,0.404c0.093,0.184,0.159,0.42,0.196,0.711
		C357.746,61.899,357.765,62.26,357.765,62.691z"/>
	<path fill="#4D4D4D" d="M388.084,64.145c0,0.172-0.028,0.323-0.084,0.452c-0.057,0.129-0.179,0.237-0.366,0.323
		c-0.188,0.085-0.45,0.15-0.788,0.194c-0.338,0.042-0.788,0.064-1.351,0.064c-0.488,0-0.887-0.022-1.196-0.064
		c-0.31-0.043-0.559-0.113-0.745-0.21c-0.188-0.097-0.334-0.231-0.437-0.404c-0.104-0.172-0.192-0.388-0.268-0.646l-3.349-9.853
		c-0.394-1.119-0.802-2.148-1.224-3.084c-0.422-0.937-0.925-1.745-1.506-2.423c-0.582-0.678-1.267-1.206-2.054-1.583
		c-0.788-0.376-1.735-0.565-2.843-0.565h-3.235v17.798c0,0.172-0.043,0.323-0.127,0.452c-0.085,0.129-0.216,0.232-0.395,0.307
		c-0.178,0.076-0.422,0.14-0.731,0.194c-0.31,0.053-0.699,0.081-1.168,0.081s-0.857-0.027-1.167-0.081
		c-0.31-0.054-0.559-0.118-0.746-0.194c-0.188-0.075-0.319-0.178-0.394-0.307c-0.075-0.129-0.113-0.28-0.113-0.452V25.446
		c0-0.84,0.192-1.426,0.577-1.76c0.384-0.333,0.792-0.5,1.224-0.5h7.739c0.919,0,1.684,0.027,2.293,0.081
		c0.609,0.054,1.158,0.113,1.646,0.178c1.407,0.28,2.649,0.722,3.729,1.324c1.078,0.603,1.983,1.368,2.716,2.293
		c0.731,0.926,1.28,1.987,1.646,3.182c0.366,1.195,0.549,2.515,0.549,3.957c0,1.4-0.164,2.654-0.492,3.763
		c-0.328,1.109-0.802,2.089-1.421,2.94s-1.36,1.588-2.224,2.212c-0.863,0.625-1.829,1.152-2.898,1.583
		c0.601,0.302,1.145,0.684,1.633,1.146c0.487,0.463,0.942,1.018,1.364,1.664s0.82,1.389,1.196,2.229
		c0.375,0.84,0.75,1.788,1.125,2.843l3.265,9.206c0.263,0.775,0.432,1.319,0.507,1.631C388.046,63.73,388.084,63.972,388.084,64.145
		z M380.796,34.782c0-1.636-0.319-3.02-0.957-4.151c-0.638-1.13-1.707-1.943-3.208-2.438c-0.469-0.15-0.999-0.259-1.59-0.323
		s-1.365-0.097-2.321-0.097h-4.08v14.083h4.728c1.275,0,2.377-0.178,3.306-0.533c0.929-0.355,1.703-0.851,2.322-1.486
		c0.619-0.635,1.073-1.383,1.364-2.245S380.796,35.794,380.796,34.782z"/>
</g>
<g>
	<polygon fill="#39B54A" points="389.094,66.333 399.692,44.709 410.29,66.333 	"/>
	<polygon fill="#F7931E" points="410.15,66.333 420.749,44.709 431.348,66.333 	"/>
	<polygon fill="#3FA9F5" points="399.621,44.333 410.221,22.709 420.82,44.333 	"/>
	<polygon fill="#D9E021" points="420.82,44.333 410.221,65.957 399.621,44.333 	"/>
</g>
</svg>
