<?xml version="1.0" encoding="utf-8"?>
<!-- Generator: Adobe Illustrator 15.0.0, SVG Export Plug-In . SVG Version: 6.00 Build 0)  -->
<!DOCTYPE svg PUBLIC "-//W3C//DTD SVG 1.1//EN" "http://www.w3.org/Graphics/SVG/1.1/DTD/svg11.dtd">
<svg version="1.1" id="Layer_1" xmlns="http://www.w3.org/2000/svg" xmlns:xlink="http://www.w3.org/1999/xlink" x="0px" y="0px"
	 width="606.667px" height="80.667px" viewBox="0 0 606.667 80.667" enable-background="new 0 0 606.667 80.667"
	 xml:space="preserve">
<g>
	<path fill="#4D4D4D" d="M495.531,25.196c0,0.544-0.013,1.002-0.037,1.373c-0.025,0.371-0.074,0.662-0.148,0.872
		c-0.074,0.21-0.167,0.371-0.278,0.482s-0.267,0.167-0.464,0.167c-0.198,0-0.439-0.056-0.724-0.167s-0.606-0.223-0.965-0.334
		s-0.761-0.216-1.206-0.315c-0.445-0.099-0.928-0.148-1.447-0.148c-0.619,0-1.225,0.124-1.818,0.371
		c-0.594,0.248-1.219,0.656-1.874,1.225c-0.655,0.569-1.343,1.324-2.06,2.264c-0.718,0.94-1.51,2.091-2.375,3.451v21.969
		c0,0.198-0.05,0.365-0.148,0.501c-0.1,0.136-0.26,0.254-0.482,0.353s-0.532,0.173-0.928,0.223
		c-0.396,0.049-0.903,0.074-1.521,0.074c-0.594,0-1.089-0.025-1.484-0.074c-0.396-0.05-0.711-0.124-0.946-0.223
		s-0.396-0.216-0.482-0.353c-0.087-0.136-0.13-0.303-0.13-0.501V23.007c0-0.198,0.037-0.365,0.111-0.501
		c0.074-0.136,0.223-0.26,0.445-0.371s0.507-0.186,0.854-0.223c0.346-0.037,0.804-0.056,1.373-0.056
		c0.544,0,0.996,0.019,1.354,0.056s0.637,0.111,0.835,0.223c0.197,0.111,0.34,0.235,0.427,0.371c0.087,0.136,0.13,0.303,0.13,0.501
		v4.861c0.915-1.336,1.775-2.424,2.579-3.266c0.804-0.841,1.564-1.503,2.282-1.985c0.717-0.482,1.429-0.816,2.134-1.002
		s1.416-0.278,2.134-0.278c0.321,0,0.687,0.019,1.095,0.056s0.835,0.105,1.28,0.204c0.445,0.099,0.848,0.21,1.206,0.334
		c0.358,0.124,0.612,0.248,0.761,0.371c0.148,0.124,0.247,0.241,0.297,0.353c0.049,0.111,0.093,0.254,0.13,0.427
		c0.037,0.173,0.062,0.427,0.074,0.761S495.531,24.627,495.531,25.196z"/>
	<path fill="#4D4D4D" d="M523.58,51.321c0,0.421-0.013,0.786-0.037,1.095c-0.025,0.31-0.068,0.569-0.13,0.779
		c-0.062,0.21-0.136,0.396-0.223,0.557c-0.087,0.161-0.284,0.396-0.594,0.705c-0.31,0.31-0.835,0.693-1.577,1.15
		c-0.742,0.458-1.577,0.866-2.505,1.225c-0.928,0.359-1.937,0.649-3.024,0.872c-1.089,0.223-2.215,0.334-3.377,0.334
		c-2.4,0-4.527-0.396-6.383-1.188s-3.408-1.948-4.657-3.47s-2.202-3.389-2.857-5.604c-0.655-2.214-0.983-4.769-0.983-7.663
		c0-3.29,0.402-6.117,1.206-8.479c0.804-2.362,1.905-4.298,3.303-5.808c1.397-1.509,3.043-2.628,4.936-3.358
		c1.893-0.729,3.939-1.095,6.142-1.095c1.063,0,2.097,0.099,3.099,0.297c1.002,0.198,1.923,0.458,2.765,0.779
		c0.841,0.322,1.59,0.693,2.245,1.113c0.655,0.421,1.132,0.779,1.429,1.076s0.501,0.532,0.612,0.705
		c0.111,0.173,0.204,0.377,0.278,0.612c0.074,0.235,0.123,0.501,0.148,0.798c0.024,0.297,0.037,0.668,0.037,1.113
		c0,0.965-0.111,1.639-0.334,2.022c-0.223,0.384-0.495,0.575-0.816,0.575c-0.371,0-0.798-0.204-1.28-0.612s-1.095-0.859-1.837-1.354
		c-0.742-0.495-1.639-0.946-2.69-1.354s-2.295-0.612-3.729-0.612c-2.944,0-5.201,1.132-6.772,3.396s-2.356,5.548-2.356,9.853
		c0,2.152,0.204,4.039,0.612,5.659c0.408,1.621,1.008,2.975,1.8,4.063c0.791,1.089,1.763,1.899,2.913,2.431
		c1.15,0.532,2.468,0.798,3.952,0.798c1.41,0,2.646-0.223,3.711-0.668c1.063-0.445,1.985-0.934,2.765-1.466
		c0.779-0.532,1.435-1.014,1.967-1.447c0.532-0.433,0.946-0.649,1.243-0.649c0.173,0,0.321,0.05,0.445,0.148
		c0.123,0.099,0.229,0.266,0.315,0.501c0.087,0.235,0.148,0.532,0.186,0.891C523.562,50.4,523.58,50.827,523.58,51.321z"/>
	<path fill="#4D4D4D" d="M558.643,56.405c0,0.198-0.049,0.365-0.148,0.501c-0.099,0.136-0.26,0.254-0.482,0.353
		s-0.531,0.173-0.928,0.223c-0.396,0.049-0.891,0.074-1.484,0.074c-0.618,0-1.125-0.025-1.521-0.074
		c-0.396-0.05-0.705-0.124-0.928-0.223s-0.383-0.216-0.482-0.353c-0.099-0.136-0.148-0.303-0.148-0.501V36.849
		c0-1.905-0.148-3.438-0.445-4.602c-0.297-1.163-0.729-2.165-1.299-3.006c-0.568-0.841-1.305-1.484-2.207-1.93
		c-0.904-0.445-1.949-0.668-3.137-0.668c-1.533,0-3.067,0.544-4.602,1.633c-1.533,1.089-3.142,2.685-4.824,4.787v23.342
		c0,0.198-0.049,0.365-0.148,0.501c-0.099,0.136-0.26,0.254-0.482,0.353s-0.531,0.173-0.928,0.223
		c-0.396,0.049-0.902,0.074-1.521,0.074c-0.594,0-1.088-0.025-1.484-0.074c-0.396-0.05-0.711-0.124-0.945-0.223
		c-0.236-0.099-0.396-0.216-0.482-0.353c-0.088-0.136-0.131-0.303-0.131-0.501V6.827c0-0.198,0.043-0.371,0.131-0.52
		c0.086-0.148,0.246-0.272,0.482-0.371c0.234-0.099,0.55-0.173,0.945-0.223c0.396-0.049,0.891-0.074,1.484-0.074
		c0.619,0,1.126,0.025,1.521,0.074c0.396,0.05,0.705,0.124,0.928,0.223c0.223,0.099,0.384,0.223,0.482,0.371
		c0.1,0.148,0.148,0.322,0.148,0.52v20.002c1.757-1.855,3.525-3.234,5.307-4.138c1.781-0.903,3.575-1.354,5.381-1.354
		c2.227,0,4.102,0.377,5.623,1.132c1.521,0.755,2.752,1.763,3.691,3.024c0.94,1.262,1.615,2.74,2.023,4.435
		c0.408,1.695,0.611,3.742,0.611,6.142V56.405z"/>
	<path fill="#4D4D4D" d="M581.793,57.333l-4.453,12.283c-0.148,0.396-0.525,0.699-1.131,0.909c-0.607,0.21-1.528,0.315-2.766,0.315
		c-0.643,0-1.162-0.031-1.559-0.093c-0.396-0.062-0.699-0.167-0.908-0.315c-0.211-0.148-0.328-0.347-0.354-0.594
		c-0.024-0.248,0.037-0.544,0.186-0.891l4.602-11.615c-0.223-0.099-0.433-0.26-0.631-0.482c-0.197-0.223-0.334-0.458-0.408-0.705
		l-11.912-31.914c-0.197-0.52-0.297-0.928-0.297-1.225s0.1-0.532,0.297-0.705c0.198-0.173,0.52-0.291,0.965-0.353
		c0.445-0.062,1.039-0.093,1.781-0.093s1.324,0.019,1.744,0.056c0.421,0.037,0.755,0.105,1.002,0.204
		c0.248,0.099,0.428,0.241,0.539,0.427s0.229,0.439,0.352,0.761l9.537,26.793h0.111l9.203-26.941
		c0.148-0.47,0.328-0.773,0.539-0.909c0.209-0.136,0.525-0.235,0.945-0.297c0.421-0.062,1.027-0.093,1.818-0.093
		c0.693,0,1.262,0.031,1.707,0.093c0.445,0.062,0.773,0.18,0.984,0.353c0.209,0.173,0.314,0.408,0.314,0.705
		s-0.074,0.668-0.223,1.113L581.793,57.333z"/>
</g>
<g>
	<path fill="#4D4D4D" d="M42.283,54.55c0,0.495-0.025,0.909-0.074,1.243c-0.05,0.334-0.13,0.619-0.241,0.854
		c-0.111,0.235-0.248,0.408-0.408,0.52c-0.161,0.111-0.353,0.167-0.575,0.167H19.758c-0.569,0-1.107-0.191-1.614-0.575
		c-0.507-0.383-0.761-1.058-0.761-2.022V10.278c0-0.198,0.049-0.371,0.148-0.52c0.099-0.148,0.272-0.266,0.52-0.353
		c0.247-0.086,0.581-0.161,1.002-0.223c0.42-0.062,0.928-0.093,1.521-0.093c0.618,0,1.132,0.031,1.54,0.093
		c0.408,0.062,0.736,0.136,0.983,0.223c0.247,0.087,0.42,0.204,0.52,0.353c0.099,0.148,0.148,0.322,0.148,0.52v41.525h17.219
		c0.223,0,0.414,0.056,0.575,0.167c0.161,0.111,0.297,0.272,0.408,0.482c0.111,0.21,0.191,0.489,0.241,0.835
		C42.258,53.635,42.283,54.055,42.283,54.55z"/>
	<path fill="#4D4D4D" d="M53.633,11.726c0,1.435-0.272,2.412-0.816,2.932c-0.544,0.52-1.546,0.779-3.006,0.779
		c-1.435,0-2.418-0.253-2.95-0.761c-0.532-0.507-0.798-1.466-0.798-2.876c0-1.435,0.272-2.412,0.816-2.932
		c0.544-0.52,1.546-0.779,3.006-0.779c1.435,0,2.418,0.254,2.95,0.761C53.367,9.357,53.633,10.315,53.633,11.726z M52.928,56.405
		c0,0.198-0.05,0.365-0.148,0.501c-0.099,0.136-0.26,0.254-0.482,0.353s-0.532,0.173-0.928,0.223
		c-0.396,0.049-0.903,0.074-1.521,0.074c-0.594,0-1.089-0.025-1.484-0.074c-0.396-0.05-0.711-0.124-0.946-0.223
		c-0.235-0.099-0.396-0.216-0.482-0.353c-0.087-0.136-0.13-0.303-0.13-0.501V23.007c0-0.173,0.043-0.334,0.13-0.482
		c0.086-0.148,0.247-0.272,0.482-0.371c0.235-0.099,0.55-0.173,0.946-0.223c0.396-0.049,0.891-0.074,1.484-0.074
		c0.618,0,1.125,0.025,1.521,0.074c0.396,0.05,0.705,0.124,0.928,0.223c0.223,0.099,0.383,0.223,0.482,0.371
		c0.099,0.148,0.148,0.31,0.148,0.482V56.405z"/>
	<path fill="#4D4D4D" d="M79.79,53.956c0,0.718-0.05,1.287-0.148,1.707c-0.099,0.421-0.248,0.73-0.445,0.928
		c-0.198,0.198-0.495,0.384-0.891,0.557c-0.396,0.173-0.848,0.315-1.354,0.427c-0.507,0.111-1.045,0.204-1.614,0.278
		c-0.569,0.074-1.138,0.111-1.707,0.111c-1.732,0-3.216-0.229-4.453-0.687c-1.237-0.458-2.251-1.15-3.043-2.078
		c-0.792-0.928-1.367-2.103-1.726-3.525c-0.359-1.422-0.538-3.099-0.538-5.028v-19.52h-4.676c-0.371,0-0.668-0.198-0.891-0.594
		c-0.223-0.396-0.334-1.039-0.334-1.93c0-0.47,0.031-0.866,0.093-1.188c0.062-0.321,0.142-0.587,0.241-0.798
		c0.099-0.21,0.229-0.358,0.39-0.445c0.161-0.086,0.34-0.13,0.538-0.13h4.639v-7.941c0-0.173,0.043-0.334,0.13-0.482
		c0.086-0.148,0.247-0.278,0.482-0.39c0.235-0.111,0.55-0.191,0.946-0.241c0.396-0.049,0.891-0.074,1.484-0.074
		c0.618,0,1.125,0.025,1.521,0.074c0.396,0.05,0.705,0.13,0.928,0.241s0.383,0.241,0.482,0.39c0.099,0.148,0.148,0.31,0.148,0.482
		v7.941h8.572c0.198,0,0.371,0.043,0.52,0.13c0.148,0.087,0.278,0.235,0.39,0.445c0.111,0.21,0.191,0.477,0.241,0.798
		c0.049,0.322,0.074,0.718,0.074,1.188c0,0.891-0.111,1.534-0.334,1.93c-0.223,0.396-0.52,0.594-0.891,0.594h-8.572v18.629
		c0,2.301,0.34,4.039,1.021,5.214c0.68,1.175,1.898,1.763,3.655,1.763c0.569,0,1.076-0.056,1.521-0.167s0.841-0.229,1.188-0.353
		c0.346-0.124,0.643-0.241,0.891-0.353c0.247-0.111,0.47-0.167,0.668-0.167c0.124,0,0.241,0.031,0.353,0.093
		c0.111,0.062,0.198,0.18,0.26,0.353c0.062,0.173,0.117,0.408,0.167,0.705C79.765,53.14,79.79,53.511,79.79,53.956z"/>
	<path fill="#4D4D4D" d="M113.739,38.259c0,0.965-0.242,1.651-0.727,2.06s-1.038,0.612-1.659,0.612H89.358
		c0,1.855,0.186,3.525,0.559,5.01c0.373,1.484,0.994,2.759,1.865,3.822c0.87,1.064,2.001,1.88,3.393,2.449
		c1.392,0.569,3.095,0.854,5.109,0.854c1.591,0,3.008-0.13,4.251-0.39s2.318-0.55,3.226-0.872c0.907-0.321,1.653-0.612,2.237-0.872
		s1.026-0.39,1.325-0.39c0.174,0,0.329,0.043,0.465,0.13c0.137,0.087,0.242,0.217,0.317,0.39c0.074,0.173,0.13,0.415,0.167,0.724
		c0.037,0.31,0.056,0.687,0.056,1.132c0,0.322-0.013,0.6-0.037,0.835c-0.025,0.235-0.056,0.445-0.093,0.631
		s-0.099,0.353-0.186,0.501c-0.087,0.148-0.198,0.291-0.334,0.427c-0.136,0.136-0.538,0.359-1.206,0.668
		c-0.668,0.31-1.534,0.612-2.598,0.909c-1.064,0.297-2.295,0.563-3.692,0.798c-1.398,0.235-2.889,0.353-4.472,0.353
		c-2.746,0-5.152-0.384-7.218-1.15c-2.066-0.767-3.804-1.905-5.214-3.414c-1.41-1.509-2.474-3.401-3.191-5.678
		c-0.718-2.276-1.076-4.923-1.076-7.941c0-2.87,0.371-5.449,1.113-7.737c0.742-2.288,1.812-4.23,3.21-5.826
		c1.397-1.596,3.086-2.82,5.065-3.674c1.979-0.854,4.193-1.28,6.643-1.28c2.622,0,4.855,0.421,6.698,1.262
		c1.843,0.841,3.358,1.973,4.546,3.396c1.188,1.423,2.06,3.093,2.616,5.01c0.557,1.917,0.835,3.965,0.835,6.142V38.259z
		 M107.579,36.44c0.074-3.216-0.642-5.739-2.147-7.57c-1.506-1.831-3.74-2.746-6.702-2.746c-1.519,0-2.851,0.285-3.995,0.854
		c-1.146,0.569-2.104,1.324-2.875,2.264c-0.772,0.94-1.369,2.035-1.792,3.284c-0.423,1.25-0.659,2.555-0.709,3.915H107.579z"/>
	<path fill="#4D4D4D" d="M140.749,25.196c0,0.544-0.013,1.002-0.037,1.373c-0.025,0.371-0.074,0.662-0.148,0.872
		c-0.074,0.21-0.167,0.371-0.278,0.482s-0.266,0.167-0.464,0.167c-0.198,0-0.439-0.056-0.724-0.167
		c-0.285-0.111-0.606-0.223-0.965-0.334c-0.359-0.111-0.761-0.216-1.206-0.315c-0.445-0.099-0.928-0.148-1.447-0.148
		c-0.619,0-1.225,0.124-1.818,0.371c-0.594,0.248-1.219,0.656-1.874,1.225c-0.656,0.569-1.342,1.324-2.06,2.264
		c-0.718,0.94-1.509,2.091-2.375,3.451v21.969c0,0.198-0.05,0.365-0.148,0.501c-0.099,0.136-0.26,0.254-0.482,0.353
		s-0.532,0.173-0.928,0.223c-0.396,0.049-0.903,0.074-1.521,0.074c-0.594,0-1.089-0.025-1.484-0.074
		c-0.396-0.05-0.711-0.124-0.946-0.223c-0.235-0.099-0.396-0.216-0.482-0.353c-0.087-0.136-0.13-0.303-0.13-0.501V23.007
		c0-0.198,0.037-0.365,0.111-0.501c0.074-0.136,0.223-0.26,0.445-0.371s0.507-0.186,0.854-0.223
		c0.346-0.037,0.804-0.056,1.373-0.056c0.544,0,0.996,0.019,1.354,0.056c0.358,0.037,0.637,0.111,0.835,0.223
		c0.198,0.111,0.34,0.235,0.427,0.371c0.086,0.136,0.13,0.303,0.13,0.501v4.861c0.915-1.336,1.775-2.424,2.579-3.266
		c0.804-0.841,1.564-1.503,2.282-1.985c0.717-0.482,1.429-0.816,2.134-1.002s1.416-0.278,2.134-0.278
		c0.321,0,0.687,0.019,1.095,0.056s0.835,0.105,1.28,0.204c0.445,0.099,0.847,0.21,1.206,0.334c0.358,0.124,0.612,0.248,0.761,0.371
		c0.148,0.124,0.247,0.241,0.297,0.353c0.049,0.111,0.093,0.254,0.13,0.427c0.037,0.173,0.062,0.427,0.074,0.761
		C140.743,24.176,140.749,24.627,140.749,25.196z"/>
	<path fill="#4D4D4D" d="M169.503,56.442c0,0.297-0.099,0.52-0.297,0.668c-0.198,0.148-0.47,0.26-0.816,0.334
		c-0.347,0.074-0.854,0.111-1.521,0.111c-0.644,0-1.157-0.037-1.54-0.111c-0.384-0.074-0.662-0.186-0.835-0.334
		c-0.173-0.148-0.26-0.371-0.26-0.668v-3.34c-1.46,1.559-3.086,2.771-4.88,3.637c-1.794,0.866-3.692,1.299-5.696,1.299
		c-1.757,0-3.346-0.229-4.769-0.687c-1.423-0.458-2.635-1.119-3.637-1.985c-1.002-0.866-1.781-1.93-2.338-3.191
		s-0.835-2.696-0.835-4.305c0-1.88,0.383-3.513,1.15-4.898c0.767-1.385,1.868-2.536,3.303-3.451c1.435-0.915,3.191-1.602,5.27-2.06
		c2.078-0.458,4.416-0.687,7.014-0.687h4.602v-2.598c0-1.286-0.136-2.424-0.408-3.414c-0.272-0.989-0.711-1.812-1.317-2.468
		c-0.606-0.655-1.392-1.15-2.356-1.484s-2.152-0.501-3.563-0.501c-1.509,0-2.864,0.18-4.063,0.538
		c-1.2,0.359-2.251,0.755-3.154,1.188c-0.903,0.433-1.658,0.829-2.264,1.188c-0.606,0.359-1.058,0.538-1.354,0.538
		c-0.198,0-0.371-0.049-0.52-0.148c-0.148-0.099-0.278-0.247-0.39-0.445c-0.111-0.198-0.192-0.451-0.241-0.761
		c-0.05-0.309-0.074-0.649-0.074-1.021c0-0.618,0.043-1.107,0.13-1.466c0.086-0.358,0.297-0.699,0.631-1.021
		c0.334-0.321,0.909-0.699,1.726-1.132c0.816-0.433,1.756-0.829,2.82-1.188c1.063-0.358,2.227-0.655,3.488-0.891
		c1.262-0.235,2.536-0.353,3.822-0.353c2.399,0,4.44,0.272,6.123,0.816c1.682,0.544,3.043,1.342,4.082,2.394
		c1.039,1.052,1.793,2.356,2.264,3.915c0.47,1.559,0.705,3.377,0.705,5.455V56.442z M163.417,41.19h-5.232
		c-1.683,0-3.142,0.143-4.379,0.427c-1.237,0.285-2.264,0.705-3.08,1.262s-1.417,1.225-1.8,2.004
		c-0.384,0.779-0.575,1.676-0.575,2.69c0,1.732,0.55,3.111,1.651,4.138c1.101,1.027,2.641,1.54,4.62,1.54
		c1.608,0,3.099-0.408,4.472-1.225s2.814-2.065,4.323-3.748V41.19z"/>
	<path fill="#4D4D4D" d="M195.585,53.956c0,0.718-0.05,1.287-0.148,1.707c-0.099,0.421-0.248,0.73-0.445,0.928
		c-0.198,0.198-0.495,0.384-0.891,0.557c-0.396,0.173-0.848,0.315-1.354,0.427c-0.507,0.111-1.045,0.204-1.614,0.278
		c-0.569,0.074-1.138,0.111-1.707,0.111c-1.732,0-3.216-0.229-4.453-0.687c-1.237-0.458-2.251-1.15-3.043-2.078
		c-0.792-0.928-1.367-2.103-1.726-3.525c-0.359-1.422-0.538-3.099-0.538-5.028v-19.52h-4.676c-0.371,0-0.668-0.198-0.891-0.594
		c-0.223-0.396-0.334-1.039-0.334-1.93c0-0.47,0.031-0.866,0.093-1.188c0.062-0.321,0.142-0.587,0.241-0.798
		c0.099-0.21,0.229-0.358,0.39-0.445c0.161-0.086,0.34-0.13,0.538-0.13h4.639v-7.941c0-0.173,0.043-0.334,0.13-0.482
		c0.086-0.148,0.247-0.278,0.482-0.39c0.235-0.111,0.55-0.191,0.946-0.241c0.396-0.049,0.891-0.074,1.484-0.074
		c0.618,0,1.125,0.025,1.521,0.074c0.396,0.05,0.705,0.13,0.928,0.241s0.383,0.241,0.482,0.39c0.099,0.148,0.148,0.31,0.148,0.482
		v7.941h8.572c0.198,0,0.371,0.043,0.52,0.13c0.148,0.087,0.278,0.235,0.39,0.445c0.111,0.21,0.191,0.477,0.241,0.798
		c0.049,0.322,0.074,0.718,0.074,1.188c0,0.891-0.111,1.534-0.334,1.93c-0.223,0.396-0.52,0.594-0.891,0.594h-8.572v18.629
		c0,2.301,0.34,4.039,1.021,5.214c0.68,1.175,1.898,1.763,3.655,1.763c0.569,0,1.076-0.056,1.521-0.167s0.841-0.229,1.188-0.353
		c0.346-0.124,0.643-0.241,0.891-0.353c0.247-0.111,0.47-0.167,0.668-0.167c0.124,0,0.241,0.031,0.353,0.093
		c0.111,0.062,0.198,0.18,0.26,0.353c0.062,0.173,0.117,0.408,0.167,0.705C195.561,53.14,195.585,53.511,195.585,53.956z"/>
	<path fill="#4D4D4D" d="M230.462,56.405c0,0.198-0.043,0.365-0.13,0.501c-0.087,0.136-0.241,0.254-0.464,0.353
		s-0.514,0.173-0.872,0.223c-0.359,0.049-0.798,0.074-1.317,0.074c-0.569,0-1.033-0.025-1.392-0.074
		c-0.359-0.05-0.644-0.124-0.854-0.223c-0.21-0.099-0.353-0.216-0.427-0.353c-0.074-0.136-0.111-0.303-0.111-0.501v-4.416
		c-1.905,2.103-3.785,3.637-5.641,4.602s-3.736,1.447-5.641,1.447c-2.227,0-4.101-0.371-5.622-1.113s-2.752-1.75-3.692-3.024
		c-0.94-1.274-1.614-2.758-2.022-4.453c-0.408-1.694-0.612-3.754-0.612-6.179V23.007c0-0.198,0.043-0.365,0.13-0.501
		c0.086-0.136,0.253-0.26,0.501-0.371c0.247-0.111,0.569-0.186,0.965-0.223c0.396-0.037,0.891-0.056,1.484-0.056
		s1.088,0.019,1.484,0.056c0.396,0.037,0.711,0.111,0.946,0.223c0.235,0.111,0.402,0.235,0.501,0.371
		c0.099,0.136,0.148,0.303,0.148,0.501v19.445c0,1.955,0.142,3.52,0.427,4.694c0.284,1.175,0.717,2.177,1.299,3.006
		c0.581,0.829,1.317,1.472,2.208,1.93c0.891,0.458,1.93,0.687,3.117,0.687c1.534,0,3.062-0.544,4.583-1.633
		c1.521-1.088,3.136-2.684,4.843-4.787V23.007c0-0.198,0.043-0.365,0.13-0.501c0.086-0.136,0.253-0.26,0.501-0.371
		c0.247-0.111,0.563-0.186,0.946-0.223c0.383-0.037,0.884-0.056,1.503-0.056c0.594,0,1.088,0.019,1.484,0.056
		c0.396,0.037,0.705,0.111,0.928,0.223s0.39,0.235,0.501,0.371c0.111,0.136,0.167,0.303,0.167,0.501V56.405z"/>
	<path fill="#4D4D4D" d="M259.477,25.196c0,0.544-0.013,1.002-0.037,1.373c-0.025,0.371-0.074,0.662-0.148,0.872
		c-0.074,0.21-0.167,0.371-0.278,0.482s-0.266,0.167-0.464,0.167c-0.198,0-0.439-0.056-0.724-0.167
		c-0.285-0.111-0.606-0.223-0.965-0.334c-0.359-0.111-0.761-0.216-1.206-0.315c-0.445-0.099-0.928-0.148-1.447-0.148
		c-0.619,0-1.225,0.124-1.818,0.371c-0.594,0.248-1.219,0.656-1.874,1.225c-0.656,0.569-1.342,1.324-2.06,2.264
		c-0.718,0.94-1.509,2.091-2.375,3.451v21.969c0,0.198-0.05,0.365-0.148,0.501c-0.099,0.136-0.26,0.254-0.482,0.353
		s-0.532,0.173-0.928,0.223c-0.396,0.049-0.903,0.074-1.521,0.074c-0.594,0-1.089-0.025-1.484-0.074
		c-0.396-0.05-0.711-0.124-0.946-0.223c-0.235-0.099-0.396-0.216-0.482-0.353c-0.087-0.136-0.13-0.303-0.13-0.501V23.007
		c0-0.198,0.037-0.365,0.111-0.501c0.074-0.136,0.223-0.26,0.445-0.371s0.507-0.186,0.854-0.223
		c0.346-0.037,0.804-0.056,1.373-0.056c0.544,0,0.996,0.019,1.354,0.056c0.358,0.037,0.637,0.111,0.835,0.223
		c0.198,0.111,0.34,0.235,0.427,0.371c0.086,0.136,0.13,0.303,0.13,0.501v4.861c0.915-1.336,1.775-2.424,2.579-3.266
		c0.804-0.841,1.564-1.503,2.282-1.985c0.717-0.482,1.429-0.816,2.134-1.002s1.416-0.278,2.134-0.278
		c0.321,0,0.687,0.019,1.095,0.056s0.835,0.105,1.28,0.204c0.445,0.099,0.847,0.21,1.206,0.334c0.358,0.124,0.612,0.248,0.761,0.371
		c0.148,0.124,0.247,0.241,0.297,0.353c0.049,0.111,0.093,0.254,0.13,0.427c0.037,0.173,0.062,0.427,0.074,0.761
		C259.47,24.176,259.477,24.627,259.477,25.196z"/>
	<path fill="#4D4D4D" d="M292.127,38.259c0,0.965-0.242,1.651-0.727,2.06s-1.038,0.612-1.659,0.612h-21.995
		c0,1.855,0.186,3.525,0.559,5.01c0.373,1.484,0.994,2.759,1.865,3.822c0.87,1.064,2.001,1.88,3.393,2.449
		c1.392,0.569,3.095,0.854,5.109,0.854c1.591,0,3.008-0.13,4.251-0.39s2.318-0.55,3.226-0.872c0.907-0.321,1.653-0.612,2.237-0.872
		s1.026-0.39,1.324-0.39c0.174,0,0.329,0.043,0.466,0.13c0.137,0.087,0.242,0.217,0.317,0.39c0.074,0.173,0.13,0.415,0.167,0.724
		c0.037,0.31,0.056,0.687,0.056,1.132c0,0.322-0.013,0.6-0.037,0.835c-0.025,0.235-0.056,0.445-0.093,0.631
		s-0.099,0.353-0.186,0.501c-0.087,0.148-0.198,0.291-0.334,0.427c-0.136,0.136-0.538,0.359-1.206,0.668
		c-0.668,0.31-1.534,0.612-2.598,0.909c-1.064,0.297-2.295,0.563-3.692,0.798c-1.398,0.235-2.889,0.353-4.472,0.353
		c-2.746,0-5.152-0.384-7.218-1.15c-2.066-0.767-3.804-1.905-5.214-3.414c-1.41-1.509-2.474-3.401-3.191-5.678
		c-0.718-2.276-1.076-4.923-1.076-7.941c0-2.87,0.371-5.449,1.113-7.737c0.742-2.288,1.812-4.23,3.21-5.826
		c1.397-1.596,3.086-2.82,5.065-3.674c1.979-0.854,4.193-1.28,6.643-1.28c2.622,0,4.855,0.421,6.698,1.262
		c1.843,0.841,3.358,1.973,4.546,3.396c1.188,1.423,2.06,3.093,2.616,5.01c0.557,1.917,0.835,3.965,0.835,6.142V38.259z
		 M285.967,36.44c0.074-3.216-0.642-5.739-2.147-7.57c-1.506-1.831-3.74-2.746-6.702-2.746c-1.519,0-2.851,0.285-3.995,0.854
		c-1.146,0.569-2.104,1.324-2.875,2.264c-0.772,0.94-1.369,2.035-1.792,3.284c-0.423,1.25-0.659,2.555-0.709,3.915H285.967z"/>
	<path fill="#4D4D4D" d="M334.908,56.368c0,0.198-0.05,0.371-0.148,0.52c-0.099,0.148-0.272,0.266-0.52,0.353
		c-0.248,0.087-0.575,0.161-0.983,0.223c-0.408,0.062-0.909,0.093-1.503,0.093c-0.644,0-1.163-0.031-1.559-0.093
		c-0.396-0.062-0.718-0.136-0.965-0.223c-0.248-0.086-0.421-0.204-0.52-0.353c-0.099-0.148-0.148-0.321-0.148-0.52V35.067h-21.857
		v21.301c0,0.198-0.05,0.371-0.148,0.52c-0.099,0.148-0.272,0.266-0.52,0.353c-0.248,0.087-0.575,0.161-0.983,0.223
		c-0.408,0.062-0.922,0.093-1.54,0.093c-0.594,0-1.101-0.031-1.521-0.093c-0.421-0.062-0.755-0.136-1.002-0.223
		c-0.248-0.086-0.421-0.204-0.52-0.353c-0.099-0.148-0.148-0.321-0.148-0.52v-46.09c0-0.198,0.049-0.371,0.148-0.52
		c0.099-0.148,0.272-0.266,0.52-0.353c0.247-0.086,0.581-0.161,1.002-0.223c0.42-0.062,0.928-0.093,1.521-0.093
		c0.618,0,1.132,0.031,1.54,0.093c0.408,0.062,0.736,0.136,0.983,0.223c0.247,0.087,0.42,0.204,0.52,0.353
		c0.099,0.148,0.148,0.322,0.148,0.52v19.223h21.857V10.278c0-0.198,0.049-0.371,0.148-0.52c0.099-0.148,0.272-0.266,0.52-0.353
		c0.247-0.086,0.569-0.161,0.965-0.223c0.396-0.062,0.915-0.093,1.559-0.093c0.594,0,1.095,0.031,1.503,0.093
		c0.408,0.062,0.736,0.136,0.983,0.223c0.247,0.087,0.42,0.204,0.52,0.353c0.099,0.148,0.148,0.322,0.148,0.52V56.368z"/>
	<path fill="#4D4D4D" d="M351.973,11.726c0,1.435-0.272,2.412-0.816,2.932c-0.544,0.52-1.546,0.779-3.006,0.779
		c-1.435,0-2.418-0.253-2.95-0.761c-0.532-0.507-0.798-1.466-0.798-2.876c0-1.435,0.272-2.412,0.816-2.932
		c0.544-0.52,1.546-0.779,3.006-0.779c1.435,0,2.418,0.254,2.95,0.761C351.707,9.357,351.973,10.315,351.973,11.726z
		 M351.268,56.405c0,0.198-0.05,0.365-0.148,0.501c-0.099,0.136-0.26,0.254-0.482,0.353s-0.532,0.173-0.928,0.223
		c-0.396,0.049-0.903,0.074-1.521,0.074c-0.594,0-1.089-0.025-1.484-0.074c-0.396-0.05-0.711-0.124-0.946-0.223
		c-0.235-0.099-0.396-0.216-0.482-0.353c-0.087-0.136-0.13-0.303-0.13-0.501V23.007c0-0.173,0.043-0.334,0.13-0.482
		c0.086-0.148,0.247-0.272,0.482-0.371c0.235-0.099,0.55-0.173,0.946-0.223c0.396-0.049,0.891-0.074,1.484-0.074
		c0.618,0,1.125,0.025,1.521,0.074c0.396,0.05,0.705,0.124,0.928,0.223c0.223,0.099,0.383,0.223,0.482,0.371
		c0.099,0.148,0.148,0.31,0.148,0.482V56.405z"/>
	<path fill="#4D4D4D" d="M389.262,38.259c0,0.965-0.242,1.651-0.727,2.06s-1.037,0.612-1.659,0.612h-21.995
		c0,1.855,0.187,3.525,0.56,5.01s0.994,2.759,1.864,3.822c0.87,1.064,2.001,1.88,3.394,2.449c1.393,0.569,3.095,0.854,5.109,0.854
		c1.591,0,3.007-0.13,4.25-0.39s2.318-0.55,3.226-0.872c0.908-0.321,1.653-0.612,2.238-0.872c0.584-0.26,1.025-0.39,1.324-0.39
		c0.174,0,0.328,0.043,0.466,0.13c0.137,0.087,0.242,0.217,0.316,0.39c0.074,0.173,0.131,0.415,0.168,0.724
		c0.037,0.31,0.056,0.687,0.056,1.132c0,0.322-0.013,0.6-0.037,0.835c-0.024,0.235-0.055,0.445-0.092,0.631s-0.1,0.353-0.186,0.501
		c-0.088,0.148-0.199,0.291-0.334,0.427c-0.137,0.136-0.539,0.359-1.207,0.668c-0.668,0.31-1.534,0.612-2.598,0.909
		s-2.295,0.563-3.691,0.798c-1.398,0.235-2.89,0.353-4.473,0.353c-2.746,0-5.152-0.384-7.217-1.15
		c-2.066-0.767-3.805-1.905-5.215-3.414c-1.41-1.509-2.474-3.401-3.191-5.678c-0.718-2.276-1.076-4.923-1.076-7.941
		c0-2.87,0.371-5.449,1.113-7.737c0.742-2.288,1.813-4.23,3.211-5.826c1.396-1.596,3.085-2.82,5.064-3.674s4.193-1.28,6.643-1.28
		c2.622,0,4.855,0.421,6.699,1.262c1.842,0.841,3.357,1.973,4.545,3.396c1.188,1.423,2.061,3.093,2.617,5.01
		c0.557,1.917,0.834,3.965,0.834,6.142V38.259z M383.102,36.44c0.074-3.216-0.642-5.739-2.146-7.57
		c-1.506-1.831-3.74-2.746-6.702-2.746c-1.519,0-2.851,0.285-3.995,0.854c-1.145,0.569-2.104,1.324-2.875,2.264
		c-0.771,0.94-1.369,2.035-1.792,3.284c-0.424,1.25-0.659,2.555-0.71,3.915H383.102z"/>
	<path fill="#4D4D4D" d="M416.272,25.196c0,0.544-0.013,1.002-0.037,1.373c-0.025,0.371-0.074,0.662-0.148,0.872
		c-0.074,0.21-0.167,0.371-0.278,0.482s-0.267,0.167-0.464,0.167c-0.198,0-0.439-0.056-0.724-0.167
		c-0.285-0.111-0.606-0.223-0.965-0.334c-0.359-0.111-0.761-0.216-1.206-0.315c-0.445-0.099-0.928-0.148-1.447-0.148
		c-0.619,0-1.225,0.124-1.818,0.371c-0.594,0.248-1.219,0.656-1.874,1.225c-0.656,0.569-1.343,1.324-2.06,2.264
		c-0.718,0.94-1.51,2.091-2.375,3.451v21.969c0,0.198-0.05,0.365-0.148,0.501c-0.1,0.136-0.26,0.254-0.482,0.353
		s-0.532,0.173-0.928,0.223c-0.396,0.049-0.903,0.074-1.521,0.074c-0.594,0-1.089-0.025-1.484-0.074
		c-0.396-0.05-0.712-0.124-0.946-0.223c-0.235-0.099-0.396-0.216-0.482-0.353c-0.087-0.136-0.13-0.303-0.13-0.501V23.007
		c0-0.198,0.037-0.365,0.111-0.501c0.074-0.136,0.223-0.26,0.445-0.371s0.507-0.186,0.854-0.223
		c0.346-0.037,0.804-0.056,1.373-0.056c0.544,0,0.995,0.019,1.354,0.056c0.358,0.037,0.637,0.111,0.835,0.223
		c0.197,0.111,0.34,0.235,0.427,0.371c0.086,0.136,0.13,0.303,0.13,0.501v4.861c0.915-1.336,1.774-2.424,2.579-3.266
		c0.804-0.841,1.564-1.503,2.282-1.985c0.717-0.482,1.429-0.816,2.134-1.002s1.416-0.278,2.134-0.278
		c0.321,0,0.687,0.019,1.095,0.056s0.835,0.105,1.28,0.204c0.445,0.099,0.847,0.21,1.206,0.334c0.358,0.124,0.612,0.248,0.761,0.371
		c0.148,0.124,0.247,0.241,0.297,0.353c0.049,0.111,0.093,0.254,0.13,0.427c0.037,0.173,0.062,0.427,0.074,0.761
		C416.266,24.176,416.272,24.627,416.272,25.196z"/>
</g>
<g>
	<polygon fill="#39B54A" points="407.094,65.333 424.648,35.352 442.203,65.333 	"/>
	<polygon fill="#F7931E" points="441.972,65.333 459.526,35.352 477.081,65.333 	"/>
	<polygon fill="#3FA9F5" points="424.532,35.333 442.087,5.352 459.644,35.333 	"/>
	<polygon fill="#D9E021" points="459.644,35.333 442.087,65.315 424.532,35.333 	"/>
</g>
</svg>
