<?xml version="1.0" encoding="utf-8"?>
<!-- Generator: Adobe Illustrator 15.0.0, SVG Export Plug-In . SVG Version: 6.00 Build 0)  -->
<!DOCTYPE svg PUBLIC "-//W3C//DTD SVG 1.1//EN" "http://www.w3.org/Graphics/SVG/1.1/DTD/svg11.dtd">
<svg version="1.1" id="Layer_1" xmlns="http://www.w3.org/2000/svg" xmlns:xlink="http://www.w3.org/1999/xlink" x="0px" y="0px"
	 width="378.667px" height="80.667px" viewBox="0 0 378.667 80.667" enable-background="new 0 0 378.667 80.667"
	 xml:space="preserve">
<g>
	<path fill="#4D4D4D" d="M325.596,56.368c0,0.198-0.051,0.371-0.153,0.52c-0.102,0.148-0.28,0.266-0.535,0.353
		c-0.255,0.087-0.58,0.161-0.975,0.223c-0.395,0.062-0.911,0.093-1.547,0.093c-0.586,0-1.089-0.031-1.51-0.093
		c-0.42-0.062-0.751-0.136-0.994-0.223c-0.242-0.086-0.414-0.204-0.516-0.353s-0.152-0.321-0.152-0.52V14.546h-0.074l-16.922,42.008
		c-0.074,0.173-0.18,0.322-0.315,0.445c-0.136,0.124-0.334,0.229-0.594,0.315s-0.569,0.148-0.928,0.186
		c-0.359,0.037-0.786,0.056-1.28,0.056c-0.52,0-0.965-0.025-1.336-0.074c-0.371-0.05-0.681-0.118-0.928-0.204
		c-0.248-0.086-0.439-0.191-0.575-0.315c-0.136-0.124-0.229-0.26-0.278-0.408l-16.18-42.008h-0.037v41.822
		c0,0.198-0.051,0.371-0.153,0.52c-0.102,0.148-0.28,0.266-0.535,0.353c-0.255,0.087-0.586,0.161-0.994,0.223
		c-0.408,0.062-0.93,0.093-1.567,0.093c-0.611,0-1.121-0.031-1.529-0.093c-0.408-0.062-0.732-0.136-0.975-0.223
		c-0.243-0.086-0.408-0.204-0.497-0.353s-0.133-0.321-0.133-0.52v-44.16c0-1.039,0.276-1.781,0.829-2.227s1.168-0.668,1.847-0.668
		h3.919c0.804,0,1.507,0.074,2.11,0.223s1.13,0.384,1.582,0.705c0.453,0.322,0.83,0.73,1.131,1.225
		c0.302,0.495,0.565,1.076,0.792,1.744l13.73,34.771h0.186l14.287-34.66c0.276-0.742,0.578-1.373,0.904-1.893
		c0.327-0.52,0.686-0.934,1.075-1.243c0.39-0.309,0.823-0.532,1.301-0.668c0.477-0.136,1.03-0.204,1.659-0.204h4.109
		c0.377,0,0.735,0.056,1.074,0.167c0.339,0.111,0.629,0.285,0.868,0.52c0.239,0.235,0.434,0.532,0.584,0.891
		c0.151,0.359,0.226,0.798,0.226,1.317V56.368z"/>
	<path fill="#4D4D4D" d="M366.039,23.378c0,2.4-0.396,4.564-1.188,6.494c-0.792,1.93-1.924,3.575-3.396,4.936
		c-1.472,1.361-3.278,2.412-5.418,3.154c-2.14,0.742-4.694,1.113-7.663,1.113h-5.455v17.293c0,0.198-0.056,0.371-0.167,0.52
		s-0.285,0.266-0.52,0.353c-0.235,0.087-0.557,0.161-0.965,0.223c-0.408,0.062-0.922,0.093-1.54,0.093
		c-0.619,0-1.132-0.031-1.54-0.093c-0.408-0.062-0.736-0.136-0.983-0.223c-0.248-0.086-0.421-0.204-0.52-0.353
		c-0.099-0.148-0.148-0.321-0.148-0.52V12.06c0-0.989,0.26-1.694,0.779-2.115c0.52-0.42,1.101-0.631,1.744-0.631h10.279
		c1.039,0,2.035,0.043,2.987,0.13c0.952,0.087,2.078,0.272,3.377,0.557c1.299,0.285,2.622,0.816,3.971,1.596
		s2.492,1.738,3.433,2.876c0.939,1.138,1.664,2.456,2.171,3.952C365.785,19.921,366.039,21.572,366.039,23.378z M359.322,23.897
		c0-1.954-0.365-3.587-1.095-4.898c-0.729-1.311-1.633-2.288-2.709-2.932c-1.076-0.643-2.189-1.051-3.34-1.225
		c-1.15-0.173-2.27-0.26-3.358-0.26h-5.9v19.26h5.752c1.93,0,3.531-0.247,4.806-0.742c1.274-0.495,2.344-1.181,3.21-2.06
		c0.865-0.878,1.521-1.93,1.967-3.154S359.322,25.333,359.322,23.897z"/>
</g>
<g>
	<path fill="#4D4D4D" d="M47.479,12.06c0,0.47-0.025,0.878-0.074,1.225c-0.05,0.347-0.13,0.625-0.241,0.835
		c-0.111,0.21-0.248,0.365-0.408,0.464c-0.161,0.099-0.34,0.148-0.538,0.148H32.709v41.637c0,0.198-0.05,0.371-0.148,0.52
		c-0.099,0.148-0.272,0.266-0.52,0.353c-0.248,0.087-0.575,0.161-0.983,0.223c-0.408,0.062-0.922,0.093-1.54,0.093
		c-0.594,0-1.101-0.031-1.521-0.093c-0.421-0.062-0.755-0.136-1.002-0.223c-0.248-0.086-0.421-0.204-0.52-0.353
		c-0.099-0.148-0.148-0.321-0.148-0.52V14.731H12.818c-0.198,0-0.377-0.049-0.538-0.148c-0.161-0.099-0.291-0.253-0.39-0.464
		c-0.099-0.21-0.18-0.488-0.241-0.835c-0.062-0.346-0.093-0.754-0.093-1.225c0-0.47,0.031-0.884,0.093-1.243
		c0.062-0.358,0.142-0.649,0.241-0.872c0.099-0.223,0.229-0.383,0.39-0.482c0.161-0.099,0.34-0.148,0.538-0.148h33.398
		c0.198,0,0.377,0.05,0.538,0.148c0.161,0.099,0.297,0.26,0.408,0.482s0.191,0.514,0.241,0.872
		C47.454,11.175,47.479,11.59,47.479,12.06z"/>
	<path fill="#4D4D4D" d="M79.313,54.698c0,0.445-0.025,0.835-0.074,1.169c-0.05,0.334-0.136,0.612-0.26,0.835
		c-0.124,0.223-0.266,0.384-0.427,0.482c-0.161,0.099-0.34,0.148-0.538,0.148H54.969c-0.569,0-1.107-0.191-1.614-0.575
		c-0.507-0.383-0.761-1.058-0.761-2.022V11.911c0-0.965,0.253-1.639,0.761-2.022c0.507-0.383,1.045-0.575,1.614-0.575h22.785
		c0.198,0,0.377,0.05,0.538,0.148c0.161,0.099,0.291,0.26,0.39,0.482c0.099,0.223,0.179,0.501,0.241,0.835
		c0.062,0.334,0.093,0.749,0.093,1.243c0,0.445-0.031,0.835-0.093,1.169c-0.062,0.334-0.143,0.606-0.241,0.816
		c-0.099,0.21-0.229,0.365-0.39,0.464c-0.161,0.099-0.34,0.148-0.538,0.148H58.977v15.066h16.105c0.198,0,0.377,0.056,0.538,0.167
		c0.161,0.111,0.297,0.266,0.408,0.464c0.111,0.198,0.191,0.47,0.241,0.816c0.049,0.347,0.074,0.755,0.074,1.225
		c0,0.445-0.025,0.829-0.074,1.15c-0.05,0.322-0.13,0.582-0.241,0.779c-0.111,0.198-0.248,0.34-0.408,0.427
		c-0.161,0.087-0.34,0.13-0.538,0.13H58.977v17.182h19.037c0.198,0,0.377,0.05,0.538,0.148c0.161,0.099,0.303,0.254,0.427,0.464
		c0.124,0.21,0.21,0.482,0.26,0.816C79.288,53.789,79.313,54.204,79.313,54.698z"/>
	<path fill="#4D4D4D" d="M119.051,50.542c0,0.396-0.013,0.742-0.037,1.039c-0.025,0.297-0.068,0.557-0.13,0.779
		c-0.062,0.223-0.143,0.421-0.241,0.594c-0.099,0.173-0.272,0.384-0.52,0.631c-0.248,0.248-0.767,0.625-1.559,1.132
		c-0.792,0.507-1.775,1.002-2.95,1.484c-1.175,0.482-2.523,0.891-4.045,1.225s-3.186,0.501-4.991,0.501
		c-3.117,0-5.932-0.52-8.442-1.559c-2.511-1.039-4.651-2.573-6.42-4.602c-1.769-2.028-3.13-4.533-4.082-7.515
		c-0.953-2.981-1.429-6.414-1.429-10.298c0-3.983,0.513-7.533,1.54-10.65c1.026-3.117,2.468-5.758,4.323-7.923
		c1.855-2.165,4.076-3.816,6.661-4.954c2.585-1.138,5.449-1.707,8.591-1.707c1.385,0,2.733,0.13,4.045,0.39
		c1.311,0.26,2.523,0.588,3.637,0.983c1.113,0.396,2.103,0.854,2.969,1.373c0.866,0.52,1.466,0.946,1.8,1.28s0.55,0.588,0.649,0.761
		c0.099,0.173,0.179,0.377,0.241,0.612c0.062,0.235,0.111,0.514,0.148,0.835c0.037,0.322,0.056,0.705,0.056,1.15
		c0,0.495-0.025,0.916-0.075,1.262c-0.05,0.347-0.124,0.637-0.224,0.872c-0.1,0.235-0.217,0.408-0.354,0.52
		s-0.305,0.167-0.504,0.167c-0.348,0-0.833-0.241-1.455-0.724s-1.424-1.014-2.407-1.596c-0.982-0.581-2.176-1.113-3.581-1.596
		c-1.405-0.482-3.09-0.724-5.055-0.724c-2.14,0-4.086,0.427-5.839,1.28s-3.252,2.109-4.495,3.767
		c-1.244,1.658-2.208,3.68-2.892,6.067c-0.685,2.388-1.026,5.115-1.026,8.183c0,3.043,0.33,5.733,0.989,8.071
		c0.659,2.338,1.604,4.292,2.835,5.863c1.231,1.571,2.742,2.759,4.532,3.563c1.791,0.804,3.818,1.206,6.082,1.206
		c1.915,0,3.587-0.235,5.017-0.705c1.43-0.47,2.649-0.996,3.656-1.577c1.007-0.581,1.834-1.107,2.481-1.577
		c0.646-0.47,1.156-0.705,1.529-0.705c0.174,0,0.324,0.037,0.448,0.111s0.224,0.217,0.299,0.427c0.074,0.21,0.13,0.501,0.167,0.872
		S119.051,49.973,119.051,50.542z"/>
	<path fill="#4D4D4D" d="M160.274,56.368c0,0.198-0.05,0.371-0.148,0.52c-0.099,0.148-0.272,0.266-0.52,0.353
		c-0.248,0.087-0.575,0.161-0.983,0.223c-0.408,0.062-0.909,0.093-1.503,0.093c-0.644,0-1.163-0.031-1.559-0.093
		c-0.396-0.062-0.718-0.136-0.965-0.223c-0.248-0.086-0.421-0.204-0.52-0.353c-0.099-0.148-0.148-0.321-0.148-0.52V35.067h-21.857
		v21.301c0,0.198-0.05,0.371-0.148,0.52c-0.099,0.148-0.272,0.266-0.52,0.353c-0.248,0.087-0.575,0.161-0.983,0.223
		c-0.408,0.062-0.922,0.093-1.54,0.093c-0.594,0-1.101-0.031-1.521-0.093c-0.421-0.062-0.755-0.136-1.002-0.223
		c-0.248-0.086-0.421-0.204-0.52-0.353c-0.099-0.148-0.148-0.321-0.148-0.52v-46.09c0-0.198,0.049-0.371,0.148-0.52
		c0.099-0.148,0.272-0.266,0.52-0.353c0.247-0.086,0.581-0.161,1.002-0.223c0.42-0.062,0.928-0.093,1.521-0.093
		c0.618,0,1.132,0.031,1.54,0.093c0.408,0.062,0.736,0.136,0.983,0.223c0.247,0.087,0.42,0.204,0.52,0.353
		c0.099,0.148,0.148,0.322,0.148,0.52v19.223h21.857V10.278c0-0.198,0.049-0.371,0.148-0.52c0.099-0.148,0.272-0.266,0.52-0.353
		c0.247-0.086,0.569-0.161,0.965-0.223c0.396-0.062,0.915-0.093,1.559-0.093c0.594,0,1.095,0.031,1.503,0.093
		c0.408,0.062,0.736,0.136,0.983,0.223c0.247,0.087,0.42,0.204,0.52,0.353c0.099,0.148,0.148,0.322,0.148,0.52V56.368z"/>
	<path fill="#4D4D4D" d="M203.278,50.542c0,0.396-0.013,0.742-0.037,1.039c-0.025,0.297-0.068,0.557-0.13,0.779
		c-0.062,0.223-0.143,0.421-0.241,0.594c-0.099,0.173-0.272,0.384-0.52,0.631c-0.248,0.248-0.767,0.625-1.559,1.132
		c-0.792,0.507-1.775,1.002-2.95,1.484c-1.175,0.482-2.523,0.891-4.045,1.225s-3.186,0.501-4.991,0.501
		c-3.117,0-5.932-0.52-8.442-1.559c-2.511-1.039-4.651-2.573-6.42-4.602c-1.769-2.028-3.13-4.533-4.082-7.515
		c-0.953-2.981-1.429-6.414-1.429-10.298c0-3.983,0.513-7.533,1.54-10.65c1.026-3.117,2.468-5.758,4.323-7.923
		c1.855-2.165,4.076-3.816,6.661-4.954c2.585-1.138,5.449-1.707,8.591-1.707c1.385,0,2.733,0.13,4.045,0.39
		c1.311,0.26,2.523,0.588,3.637,0.983c1.113,0.396,2.103,0.854,2.969,1.373c0.866,0.52,1.466,0.946,1.8,1.28s0.55,0.588,0.649,0.761
		c0.099,0.173,0.179,0.377,0.241,0.612c0.062,0.235,0.111,0.514,0.148,0.835c0.037,0.322,0.056,0.705,0.056,1.15
		c0,0.495-0.025,0.916-0.075,1.262c-0.05,0.347-0.124,0.637-0.224,0.872c-0.1,0.235-0.217,0.408-0.354,0.52
		s-0.305,0.167-0.504,0.167c-0.348,0-0.833-0.241-1.455-0.724c-0.623-0.482-1.425-1.014-2.407-1.596
		c-0.982-0.581-2.176-1.113-3.581-1.596s-3.09-0.724-5.055-0.724c-2.14,0-4.086,0.427-5.839,1.28s-3.252,2.109-4.495,3.767
		c-1.244,1.658-2.208,3.68-2.892,6.067c-0.685,2.388-1.026,5.115-1.026,8.183c0,3.043,0.329,5.733,0.989,8.071
		c0.659,2.338,1.604,4.292,2.835,5.863c1.231,1.571,2.742,2.759,4.532,3.563c1.791,0.804,3.818,1.206,6.082,1.206
		c1.915,0,3.587-0.235,5.017-0.705c1.43-0.47,2.649-0.996,3.656-1.577c1.007-0.581,1.834-1.107,2.481-1.577
		c0.646-0.47,1.156-0.705,1.529-0.705c0.174,0,0.324,0.037,0.448,0.111s0.224,0.217,0.299,0.427c0.074,0.21,0.13,0.501,0.167,0.872
		S203.278,49.973,203.278,50.542z"/>
</g>
<path fill="#8C6239" d="M253.855,46.653l19.25,19.01c2.405,2.657,1.234,7.636-1.23,9.868l-0.054,0.049
	c-2.465,2.231-7.536,2.902-9.941,0.245l-17.006-21.042"/>
<radialGradient id="SVGID_1_" cx="235.5708" cy="34.5039" r="22.4497" gradientUnits="userSpaceOnUse">
	<stop  offset="0.6061" style="stop-color:#130C0E;stop-opacity:0"/>
	<stop  offset="0.8302" style="stop-color:#130C0E;stop-opacity:0.2255"/>
	<stop  offset="0.8545" style="stop-color:#130C0E;stop-opacity:0.25"/>
	<stop  offset="0.9697" style="stop-color:#130C0E;stop-opacity:0.7"/>
</radialGradient>
<circle fill="url(#SVGID_1_)" stroke="#534741" stroke-width="6" stroke-miterlimit="10" cx="235.571" cy="34.504" r="22.45"/>
</svg>
