<?xml version="1.0" encoding="utf-8"?>
<!-- Generator: Adobe Illustrator 15.0.0, SVG Export Plug-In . SVG Version: 6.00 Build 0)  -->
<!DOCTYPE svg PUBLIC "-//W3C//DTD SVG 1.1//EN" "http://www.w3.org/Graphics/SVG/1.1/DTD/svg11.dtd">
<svg version="1.1" id="Layer_1" xmlns="http://www.w3.org/2000/svg" xmlns:xlink="http://www.w3.org/1999/xlink" x="0px" y="0px"
	 width="275.333px" height="64.667px" viewBox="0 0 275.333 64.667" enable-background="new 0 0 275.333 64.667"
	 xml:space="preserve">
<g>
	<path fill="#4D4D4D" d="M157.219,56.405c0,0.198-0.05,0.365-0.148,0.501c-0.099,0.136-0.26,0.254-0.482,0.353
		s-0.532,0.173-0.928,0.223c-0.396,0.049-0.891,0.074-1.484,0.074c-0.619,0-1.126-0.025-1.521-0.074
		c-0.396-0.05-0.711-0.124-0.946-0.223c-0.235-0.099-0.402-0.216-0.501-0.353c-0.099-0.136-0.148-0.303-0.148-0.501V36.106
		c0-1.41-0.124-2.696-0.371-3.859c-0.248-1.163-0.644-2.165-1.188-3.006c-0.544-0.841-1.237-1.484-2.078-1.93
		c-0.841-0.445-1.831-0.668-2.969-0.668c-1.41,0-2.827,0.544-4.249,1.633c-1.423,1.089-2.987,2.685-4.694,4.787v23.342
		c0,0.198-0.05,0.365-0.148,0.501c-0.099,0.136-0.266,0.254-0.501,0.353c-0.235,0.099-0.551,0.173-0.946,0.223
		c-0.396,0.049-0.891,0.074-1.484,0.074c-0.569,0-1.058-0.025-1.466-0.074c-0.408-0.05-0.73-0.124-0.965-0.223
		c-0.235-0.099-0.396-0.216-0.482-0.353c-0.087-0.136-0.13-0.303-0.13-0.501V36.106c0-1.41-0.136-2.696-0.408-3.859
		c-0.272-1.163-0.681-2.165-1.225-3.006c-0.544-0.841-1.231-1.484-2.06-1.93c-0.829-0.445-1.813-0.668-2.95-0.668
		c-1.41,0-2.833,0.544-4.268,1.633c-1.435,1.089-2.994,2.685-4.676,4.787v23.342c0,0.198-0.05,0.365-0.148,0.501
		c-0.099,0.136-0.26,0.254-0.482,0.353s-0.532,0.173-0.928,0.223c-0.396,0.049-0.903,0.074-1.521,0.074
		c-0.594,0-1.089-0.025-1.484-0.074c-0.396-0.05-0.711-0.124-0.946-0.223c-0.235-0.099-0.396-0.216-0.482-0.353
		c-0.087-0.136-0.13-0.303-0.13-0.501V23.007c0-0.198,0.037-0.365,0.111-0.501c0.074-0.136,0.223-0.26,0.445-0.371
		s0.507-0.186,0.854-0.223c0.346-0.037,0.804-0.056,1.373-0.056c0.544,0,0.996,0.019,1.354,0.056
		c0.358,0.037,0.637,0.111,0.835,0.223c0.198,0.111,0.34,0.235,0.427,0.371c0.086,0.136,0.13,0.303,0.13,0.501v4.416
		c1.88-2.103,3.705-3.643,5.474-4.62c1.769-0.977,3.556-1.466,5.362-1.466c1.385,0,2.628,0.161,3.729,0.482
		c1.101,0.322,2.072,0.773,2.913,1.354c0.841,0.582,1.559,1.274,2.152,2.078c0.594,0.804,1.088,1.701,1.484,2.69
		c1.113-1.212,2.171-2.239,3.173-3.08c1.002-0.841,1.967-1.521,2.895-2.041s1.831-0.896,2.709-1.132
		c0.878-0.235,1.763-0.353,2.653-0.353c2.152,0,3.958,0.377,5.418,1.132c1.459,0.755,2.641,1.763,3.544,3.024
		c0.903,1.262,1.546,2.74,1.93,4.435c0.383,1.695,0.575,3.482,0.575,5.362V56.405z"/>
	<path fill="#4D4D4D" d="M198.596,23.378c0,2.4-0.396,4.564-1.188,6.494c-0.792,1.93-1.924,3.575-3.396,4.936
		c-1.472,1.361-3.278,2.412-5.418,3.154c-2.14,0.742-4.694,1.113-7.663,1.113h-5.455v17.293c0,0.198-0.056,0.371-0.167,0.52
		s-0.285,0.266-0.52,0.353c-0.235,0.087-0.557,0.161-0.965,0.223c-0.408,0.062-0.922,0.093-1.54,0.093
		c-0.619,0-1.132-0.031-1.54-0.093c-0.408-0.062-0.736-0.136-0.983-0.223c-0.248-0.086-0.421-0.204-0.52-0.353
		c-0.099-0.148-0.148-0.321-0.148-0.52V12.06c0-0.989,0.26-1.694,0.779-2.115c0.52-0.42,1.101-0.631,1.744-0.631h10.279
		c1.039,0,2.035,0.043,2.987,0.13c0.952,0.087,2.078,0.272,3.377,0.557c1.299,0.285,2.622,0.816,3.971,1.596
		c1.348,0.779,2.492,1.738,3.433,2.876c0.94,1.138,1.664,2.456,2.171,3.952C198.342,19.921,198.596,21.572,198.596,23.378z
		 M191.879,23.897c0-1.954-0.365-3.587-1.095-4.898c-0.73-1.311-1.633-2.288-2.709-2.932c-1.076-0.643-2.189-1.051-3.34-1.225
		c-1.15-0.173-2.27-0.26-3.358-0.26h-5.9v19.26h5.752c1.93,0,3.531-0.247,4.806-0.742c1.274-0.495,2.344-1.181,3.21-2.06
		c0.866-0.878,1.521-1.93,1.967-3.154S191.879,25.333,191.879,23.897z"/>
	<path fill="#4D4D4D" d="M232.811,56.442c0,0.297-0.099,0.52-0.297,0.668c-0.198,0.148-0.47,0.26-0.816,0.334
		c-0.347,0.074-0.854,0.111-1.521,0.111c-0.644,0-1.157-0.037-1.54-0.111c-0.384-0.074-0.662-0.186-0.835-0.334
		c-0.173-0.148-0.26-0.371-0.26-0.668v-3.34c-1.46,1.559-3.086,2.771-4.88,3.637c-1.794,0.866-3.692,1.299-5.696,1.299
		c-1.757,0-3.346-0.229-4.769-0.687c-1.423-0.458-2.635-1.119-3.637-1.985c-1.002-0.866-1.781-1.93-2.338-3.191
		s-0.835-2.696-0.835-4.305c0-1.88,0.383-3.513,1.15-4.898c0.767-1.385,1.868-2.536,3.303-3.451c1.435-0.915,3.191-1.602,5.27-2.06
		c2.078-0.458,4.416-0.687,7.014-0.687h4.602v-2.598c0-1.286-0.136-2.424-0.408-3.414c-0.272-0.989-0.711-1.812-1.317-2.468
		c-0.606-0.655-1.392-1.15-2.356-1.484s-2.152-0.501-3.563-0.501c-1.509,0-2.864,0.18-4.063,0.538
		c-1.2,0.359-2.251,0.755-3.154,1.188c-0.903,0.433-1.658,0.829-2.264,1.188c-0.606,0.359-1.058,0.538-1.354,0.538
		c-0.198,0-0.371-0.049-0.52-0.148c-0.148-0.099-0.278-0.247-0.39-0.445c-0.111-0.198-0.192-0.451-0.241-0.761
		c-0.05-0.309-0.074-0.649-0.074-1.021c0-0.618,0.043-1.107,0.13-1.466c0.086-0.358,0.297-0.699,0.631-1.021
		c0.334-0.321,0.909-0.699,1.726-1.132c0.816-0.433,1.756-0.829,2.82-1.188c1.063-0.358,2.227-0.655,3.488-0.891
		c1.262-0.235,2.536-0.353,3.822-0.353c2.399,0,4.44,0.272,6.123,0.816c1.682,0.544,3.043,1.342,4.082,2.394
		c1.039,1.052,1.793,2.356,2.264,3.915c0.47,1.559,0.705,3.377,0.705,5.455V56.442z M226.725,41.19h-5.232
		c-1.683,0-3.142,0.143-4.379,0.427c-1.237,0.285-2.264,0.705-3.08,1.262s-1.417,1.225-1.8,2.004
		c-0.384,0.779-0.575,1.676-0.575,2.69c0,1.732,0.55,3.111,1.651,4.138c1.101,1.027,2.641,1.54,4.62,1.54
		c1.608,0,3.099-0.408,4.472-1.225s2.814-2.065,4.323-3.748V41.19z"/>
	<path fill="#4D4D4D" d="M265.021,47.313c0,1.707-0.315,3.229-0.946,4.564s-1.528,2.462-2.69,3.377
		c-1.163,0.916-2.548,1.608-4.156,2.078c-1.608,0.47-3.377,0.705-5.307,0.705c-1.188,0-2.319-0.093-3.396-0.278
		s-2.041-0.421-2.895-0.705s-1.577-0.581-2.171-0.891c-0.594-0.309-1.027-0.587-1.299-0.835c-0.272-0.247-0.47-0.594-0.594-1.039
		c-0.124-0.445-0.186-1.051-0.186-1.818c0-0.47,0.024-0.866,0.074-1.188c0.049-0.321,0.111-0.581,0.186-0.779
		c0.074-0.198,0.179-0.34,0.315-0.427c0.136-0.086,0.291-0.13,0.464-0.13c0.272,0,0.674,0.167,1.206,0.501
		c0.532,0.334,1.188,0.699,1.967,1.095c0.779,0.396,1.701,0.761,2.765,1.095c1.063,0.334,2.288,0.501,3.674,0.501
		c1.039,0,1.979-0.111,2.82-0.334c0.841-0.223,1.571-0.55,2.189-0.983c0.618-0.433,1.095-0.983,1.429-1.651s0.501-1.459,0.501-2.375
		c0-0.94-0.241-1.731-0.724-2.375c-0.482-0.643-1.12-1.212-1.911-1.707c-0.792-0.495-1.683-0.934-2.672-1.317
		c-0.99-0.383-2.01-0.785-3.062-1.206c-1.052-0.42-2.078-0.896-3.08-1.429c-1.002-0.532-1.899-1.181-2.69-1.948
		c-0.792-0.767-1.429-1.682-1.911-2.746c-0.482-1.063-0.724-2.338-0.724-3.822c0-1.311,0.253-2.566,0.761-3.767
		c0.507-1.2,1.268-2.251,2.282-3.154c1.014-0.903,2.282-1.626,3.804-2.171c1.521-0.544,3.296-0.816,5.325-0.816
		c0.891,0,1.781,0.074,2.672,0.223s1.694,0.334,2.412,0.557c0.717,0.223,1.33,0.464,1.837,0.724c0.507,0.26,0.891,0.489,1.15,0.687
		c0.26,0.198,0.433,0.371,0.52,0.52c0.086,0.148,0.148,0.315,0.186,0.501s0.074,0.415,0.111,0.687
		c0.037,0.272,0.056,0.606,0.056,1.002c0,0.421-0.019,0.786-0.056,1.095c-0.037,0.31-0.099,0.563-0.186,0.761
		c-0.087,0.198-0.192,0.34-0.315,0.427c-0.124,0.087-0.26,0.13-0.408,0.13c-0.223,0-0.544-0.136-0.965-0.408
		c-0.421-0.272-0.965-0.563-1.633-0.872c-0.668-0.309-1.454-0.6-2.356-0.872c-0.903-0.272-1.936-0.408-3.099-0.408
		c-1.039,0-1.955,0.118-2.746,0.353c-0.792,0.235-1.441,0.569-1.948,1.002c-0.507,0.433-0.891,0.946-1.15,1.54
		s-0.39,1.237-0.39,1.93c0,0.965,0.247,1.775,0.742,2.431c0.495,0.656,1.138,1.231,1.93,1.726c0.792,0.495,1.694,0.94,2.709,1.336
		c1.014,0.396,2.047,0.804,3.099,1.225c1.051,0.421,2.09,0.891,3.117,1.41c1.026,0.52,1.936,1.15,2.728,1.893
		c0.792,0.742,1.429,1.633,1.911,2.672S265.021,45.879,265.021,47.313z"/>
</g>
<circle fill="none" stroke="#4D4D4D" stroke-width="6" stroke-miterlimit="10" cx="74.571" cy="37.504" r="19.45"/>
<polygon fill="#E4001C" stroke="#FFFFFF" stroke-width="2" stroke-miterlimit="10" points="75.111,45.204 53.5,62.042 
	75.111,10.175 96.722,62.042 "/>
<g>
	<path fill="#4D4D4D" d="M44.445,50.542c0,0.396-0.013,0.742-0.037,1.039c-0.025,0.297-0.068,0.557-0.13,0.779
		c-0.062,0.223-0.143,0.421-0.241,0.594c-0.099,0.173-0.272,0.384-0.52,0.631c-0.248,0.248-0.767,0.625-1.559,1.132
		c-0.792,0.507-1.775,1.002-2.95,1.484c-1.175,0.482-2.523,0.891-4.045,1.225s-3.186,0.501-4.991,0.501
		c-3.117,0-5.932-0.52-8.442-1.559c-2.511-1.039-4.651-2.573-6.42-4.602c-1.769-2.028-3.13-4.533-4.082-7.515
		C10.076,41.271,9.6,37.838,9.6,33.954c0-3.983,0.513-7.533,1.54-10.65c1.026-3.117,2.468-5.758,4.323-7.923
		c1.855-2.165,4.076-3.816,6.661-4.954c2.585-1.138,5.449-1.707,8.591-1.707c1.385,0,2.733,0.13,4.045,0.39
		c1.311,0.26,2.523,0.588,3.637,0.983c1.113,0.396,2.103,0.854,2.969,1.373c0.866,0.52,1.466,0.946,1.8,1.28s0.55,0.588,0.649,0.761
		c0.099,0.173,0.179,0.377,0.241,0.612c0.062,0.235,0.111,0.514,0.148,0.835c0.037,0.322,0.056,0.705,0.056,1.15
		c0,0.495-0.025,0.916-0.075,1.262c-0.05,0.347-0.124,0.637-0.224,0.872c-0.1,0.235-0.217,0.408-0.354,0.52
		s-0.305,0.167-0.504,0.167c-0.348,0-0.833-0.241-1.455-0.724c-0.623-0.482-1.425-1.014-2.407-1.596
		c-0.982-0.581-2.176-1.113-3.581-1.596s-3.09-0.724-5.055-0.724c-2.14,0-4.086,0.427-5.839,1.28s-3.252,2.109-4.495,3.767
		c-1.244,1.658-2.208,3.68-2.892,6.067c-0.685,2.388-1.026,5.115-1.026,8.183c0,3.043,0.329,5.733,0.989,8.071
		c0.659,2.338,1.604,4.292,2.835,5.863c1.231,1.571,2.742,2.759,4.532,3.563c1.791,0.804,3.818,1.206,6.082,1.206
		c1.915,0,3.587-0.235,5.017-0.705c1.43-0.47,2.649-0.996,3.656-1.577c1.007-0.581,1.834-1.107,2.481-1.577
		c0.646-0.47,1.156-0.705,1.529-0.705c0.174,0,0.324,0.037,0.448,0.111s0.224,0.217,0.299,0.427c0.074,0.21,0.13,0.501,0.167,0.872
		S44.445,49.973,44.445,50.542z"/>
</g>
</svg>
