<?xml version="1.0" encoding="utf-8"?>
<!-- Generator: Adobe Illustrator 15.0.0, SVG Export Plug-In . SVG Version: 6.00 Build 0)  -->
<!DOCTYPE svg PUBLIC "-//W3C//DTD SVG 1.1//EN" "http://www.w3.org/Graphics/SVG/1.1/DTD/svg11.dtd">
<svg version="1.1" id="Layer_1" xmlns="http://www.w3.org/2000/svg" xmlns:xlink="http://www.w3.org/1999/xlink" x="0px" y="0px"
	 width="275.333px" height="64.667px" viewBox="0 0 275.333 64.667" enable-background="new 0 0 275.333 64.667"
	 xml:space="preserve">
<g>
	<path fill="#333333" d="M40.43,54.837c0,0.469-0.079,0.867-0.236,1.195c-0.158,0.329-0.363,0.598-0.618,0.809
		c-0.255,0.211-0.54,0.364-0.855,0.457s-0.63,0.141-0.945,0.141h-2c-0.63,0-1.182-0.065-1.655-0.193s-0.921-0.363-1.345-0.703
		c-0.424-0.339-0.849-0.803-1.272-1.389c-0.424-0.585-0.875-1.336-1.35-2.25L16.275,27.028c-0.726-1.336-1.457-2.736-2.194-4.201
		c-0.737-1.464-1.423-2.888-2.058-4.271h-0.07c0.047,1.688,0.082,3.41,0.105,5.168c0.023,1.758,0.035,3.504,0.035,5.238v27.457
		c0,0.164-0.049,0.322-0.148,0.475c-0.099,0.153-0.266,0.27-0.501,0.352c-0.235,0.083-0.544,0.152-0.927,0.211
		c-0.383,0.058-0.872,0.088-1.465,0.088c-0.594,0-1.082-0.03-1.466-0.088c-0.383-0.059-0.686-0.128-0.908-0.211
		c-0.223-0.082-0.384-0.199-0.482-0.352c-0.099-0.152-0.148-0.311-0.148-0.475V14.442c0-0.937,0.266-1.605,0.798-2.004
		c0.532-0.398,1.113-0.598,1.742-0.598h2.976c0.701,0,1.288,0.059,1.76,0.176c0.472,0.118,0.895,0.311,1.27,0.58
		c0.375,0.27,0.738,0.645,1.089,1.125c0.351,0.48,0.719,1.084,1.104,1.811l10.668,19.969c0.657,1.219,1.291,2.408,1.903,3.568
		c0.611,1.16,1.2,2.303,1.767,3.428s1.127,2.232,1.682,3.322s1.104,2.186,1.648,3.287h0.035c-0.047-1.851-0.076-3.779-0.088-5.783
		c-0.012-2.004-0.018-3.932-0.018-5.783V12.86c0-0.164,0.049-0.316,0.148-0.457c0.099-0.141,0.265-0.264,0.5-0.369
		c0.235-0.105,0.544-0.181,0.928-0.229c0.383-0.047,0.884-0.07,1.502-0.07c0.543,0,1.014,0.023,1.409,0.07
		c0.396,0.047,0.705,0.123,0.928,0.229s0.384,0.229,0.482,0.369c0.099,0.141,0.148,0.293,0.148,0.457V54.837z"/>
	<path fill="#333333" d="M49.43,48.009c0-1.002,0.137-1.955,0.41-2.857s0.702-1.777,1.285-2.625
		c0.583-0.848,1.344-1.668,2.283-2.461c0.938-0.793,2.073-1.59,3.404-2.393c-0.729-0.984-1.354-1.877-1.873-2.68
		c-0.52-0.802-0.948-1.549-1.285-2.242c-0.337-0.692-0.579-1.354-0.725-1.982c-0.146-0.629-0.219-1.262-0.219-1.9
		c0-1.13,0.191-2.21,0.574-3.24c0.383-1.03,0.998-1.941,1.846-2.734s1.937-1.422,3.268-1.887c1.331-0.465,2.944-0.697,4.84-0.697
		c1.604,0,2.994,0.173,4.17,0.52c1.176,0.347,2.151,0.839,2.926,1.477c0.774,0.638,1.358,1.408,1.75,2.311
		c0.392,0.902,0.588,1.91,0.588,3.021c0,1.076-0.173,2.06-0.52,2.953c-0.347,0.894-0.902,1.759-1.668,2.598
		c-0.766,0.839-1.746,1.673-2.939,2.502c-1.194,0.83-2.639,1.7-4.334,2.611c0.62,0.748,1.294,1.527,2.023,2.338
		c0.729,0.812,1.49,1.627,2.283,2.447s1.604,1.627,2.434,2.42c0.829,0.793,1.645,1.554,2.447,2.283
		c0.364-0.492,0.692-1.053,0.984-1.682c0.292-0.629,0.547-1.294,0.766-1.996c0.219-0.702,0.383-1.417,0.492-2.146
		c0.109-0.729,0.164-1.467,0.164-2.215v-0.984c0-0.182,0.032-0.333,0.096-0.451c0.063-0.118,0.168-0.219,0.314-0.301
		c0.146-0.082,0.36-0.141,0.643-0.178c0.282-0.036,0.651-0.055,1.107-0.055c0.401,0,0.743,0.009,1.025,0.027
		c0.282,0.019,0.515,0.06,0.697,0.123c0.182,0.064,0.314,0.164,0.396,0.301s0.123,0.324,0.123,0.561v0.684
		c0,1.021-0.087,2.023-0.26,3.008c-0.173,0.984-0.41,1.946-0.711,2.885c-0.301,0.939-0.675,1.837-1.121,2.693
		c-0.447,0.857-0.943,1.65-1.49,2.379c0.82,0.656,1.536,1.203,2.146,1.641c0.61,0.438,1.13,0.793,1.559,1.066
		c0.428,0.273,0.784,0.465,1.066,0.574c0.282,0.109,0.515,0.164,0.697,0.164c0.182,0,0.355-0.009,0.52-0.027
		c0.164-0.018,0.296,0.009,0.396,0.082c0.1,0.073,0.178,0.219,0.232,0.438s0.082,0.556,0.082,1.012c0,0.456-0.009,0.82-0.027,1.094
		c-0.019,0.273-0.05,0.479-0.096,0.615c-0.046,0.137-0.123,0.25-0.232,0.342c-0.109,0.091-0.31,0.173-0.602,0.246
		c-0.292,0.073-0.675,0.109-1.148,0.109c-0.365,0-0.766-0.064-1.203-0.191c-0.438-0.128-0.948-0.351-1.531-0.67
		c-0.583-0.319-1.263-0.752-2.037-1.299c-0.775-0.547-1.682-1.239-2.721-2.078c-0.766,0.62-1.572,1.194-2.42,1.723
		c-0.848,0.529-1.75,0.98-2.707,1.354c-0.957,0.374-1.96,0.666-3.008,0.875c-1.048,0.209-2.183,0.314-3.404,0.314
		c-1.148,0-2.238-0.101-3.268-0.301c-1.03-0.2-1.982-0.487-2.857-0.861c-0.875-0.374-1.659-0.843-2.352-1.408
		c-0.693-0.565-1.281-1.208-1.764-1.928c-0.483-0.72-0.857-1.526-1.121-2.42C49.562,50.014,49.43,49.048,49.43,48.009z
		 M54.324,47.544c0,0.948,0.159,1.814,0.479,2.598c0.319,0.784,0.788,1.463,1.408,2.037c0.62,0.574,1.395,1.021,2.324,1.34
		c0.93,0.319,2.005,0.479,3.227,0.479c0.747,0,1.477-0.077,2.188-0.232c0.711-0.155,1.39-0.364,2.037-0.629
		c0.647-0.264,1.262-0.583,1.846-0.957c0.583-0.374,1.121-0.77,1.613-1.189c-0.948-0.82-1.892-1.672-2.83-2.557
		c-0.939-0.884-1.846-1.772-2.721-2.666c-0.875-0.893-1.718-1.782-2.529-2.666c-0.812-0.884-1.554-1.745-2.229-2.584
		c-0.912,0.583-1.673,1.162-2.283,1.736c-0.611,0.574-1.103,1.148-1.477,1.723c-0.374,0.574-0.643,1.153-0.807,1.736
		C54.406,46.295,54.324,46.906,54.324,47.544z M57.496,28.513c0,0.492,0.068,0.994,0.205,1.504c0.137,0.511,0.346,1.044,0.629,1.6
		c0.282,0.556,0.629,1.153,1.039,1.791c0.41,0.638,0.897,1.349,1.463,2.133c1.331-0.747,2.447-1.436,3.35-2.064
		s1.627-1.235,2.174-1.818c0.547-0.583,0.943-1.167,1.189-1.75c0.246-0.583,0.369-1.203,0.369-1.859
		c0-0.528-0.096-1.034-0.287-1.518c-0.191-0.483-0.497-0.911-0.916-1.285c-0.419-0.374-0.948-0.67-1.586-0.889
		c-0.638-0.219-1.404-0.328-2.297-0.328c-0.966,0-1.782,0.123-2.447,0.369c-0.666,0.246-1.212,0.574-1.641,0.984
		c-0.429,0.41-0.743,0.889-0.943,1.436C57.596,27.364,57.496,27.93,57.496,28.513z"/>
	<path fill="#333333" d="M120.711,44.29c0,1.43-0.182,2.748-0.545,3.955c-0.364,1.208-0.874,2.291-1.529,3.252
		c-0.656,0.961-1.447,1.805-2.373,2.531c-0.926,0.727-1.969,1.336-3.129,1.828s-2.403,0.861-3.727,1.107
		c-1.324,0.246-2.842,0.369-4.553,0.369H92.973c-0.54,0-1.049-0.181-1.529-0.545c-0.48-0.363-0.721-1.002-0.721-1.916v-40.57
		c0-0.914,0.24-1.552,0.721-1.916c0.48-0.363,0.99-0.545,1.529-0.545h10.336c2.719,0,4.945,0.258,6.68,0.773
		c1.734,0.516,3.182,1.266,4.342,2.25s2.033,2.192,2.619,3.621c0.585,1.43,0.879,3.047,0.879,4.852c0,1.078-0.129,2.109-0.387,3.094
		c-0.258,0.984-0.639,1.893-1.143,2.725c-0.504,0.832-1.137,1.577-1.898,2.232c-0.762,0.656-1.635,1.195-2.619,1.617
		c1.242,0.234,2.402,0.663,3.48,1.283c1.078,0.621,2.021,1.412,2.83,2.373c0.809,0.961,1.447,2.086,1.916,3.375
		C120.477,41.325,120.711,42.743,120.711,44.29z M111.605,23.935c0-1.102-0.152-2.097-0.456-2.988
		c-0.304-0.891-0.783-1.646-1.438-2.268c-0.655-0.621-1.508-1.095-2.561-1.424c-1.052-0.328-2.443-0.492-4.173-0.492h-6.243v14.73
		h6.874c1.567,0,2.829-0.205,3.788-0.615c0.958-0.41,1.753-0.961,2.385-1.652c0.631-0.691,1.093-1.5,1.385-2.426
		C111.459,25.874,111.605,24.919,111.605,23.935z M114.348,44.642c0-1.359-0.216-2.554-0.649-3.586
		c-0.433-1.031-1.064-1.898-1.895-2.602s-1.872-1.236-3.123-1.6c-1.251-0.363-2.824-0.545-4.718-0.545h-7.228v16.031h8.771
		c1.38,0,2.584-0.164,3.614-0.492c1.029-0.328,1.936-0.814,2.719-1.459c0.783-0.645,1.397-1.447,1.842-2.408
		C114.125,47.021,114.348,45.907,114.348,44.642z"/>
	<path fill="#808080" d="M174.113,25.165c0,2.273-0.375,4.324-1.125,6.152c-0.75,1.828-1.823,3.387-3.217,4.676
		c-1.395,1.289-3.106,2.285-5.133,2.988c-2.027,0.703-4.447,1.055-7.26,1.055h-5.168v16.383c0,0.188-0.053,0.352-0.158,0.492
		s-0.27,0.252-0.492,0.334c-0.223,0.083-0.527,0.152-0.914,0.211c-0.387,0.058-0.874,0.088-1.459,0.088
		c-0.586,0-1.072-0.03-1.459-0.088c-0.387-0.059-0.698-0.128-0.932-0.211c-0.234-0.082-0.399-0.193-0.492-0.334
		c-0.094-0.141-0.141-0.304-0.141-0.492V14.442c0-0.937,0.246-1.605,0.738-2.004c0.492-0.398,1.042-0.598,1.652-0.598h9.738
		c0.984,0,1.928,0.041,2.83,0.123c0.902,0.083,1.969,0.258,3.199,0.527c1.23,0.27,2.484,0.773,3.762,1.512
		c1.277,0.738,2.361,1.647,3.252,2.725c0.891,1.078,1.576,2.326,2.057,3.744C173.873,21.89,174.113,23.455,174.113,25.165z
		 M167.75,25.657c0-1.851-0.346-3.398-1.037-4.641c-0.691-1.242-1.547-2.167-2.566-2.777c-1.02-0.609-2.074-0.996-3.164-1.16
		c-1.09-0.164-2.15-0.246-3.182-0.246h-5.59v18.246h5.449c1.828,0,3.345-0.234,4.553-0.703c1.207-0.469,2.22-1.119,3.041-1.951
		c0.82-0.832,1.441-1.828,1.863-2.988S167.75,27.017,167.75,25.657z"/>
	<path fill="#808080" d="M221.469,34.06c0,3.68-0.434,6.996-1.301,9.949c-0.867,2.953-2.162,5.467-3.885,7.541
		s-3.885,3.668-6.486,4.781s-5.637,1.67-9.105,1.67c-3.422,0-6.381-0.51-8.877-1.529s-4.559-2.501-6.188-4.447
		c-1.629-1.945-2.842-4.359-3.639-7.242c-0.797-2.883-1.195-6.199-1.195-9.949c0-3.586,0.434-6.843,1.301-9.773
		c0.867-2.93,2.167-5.419,3.902-7.471c1.734-2.051,3.902-3.633,6.504-4.746c2.602-1.113,5.637-1.67,9.105-1.67
		c3.352,0,6.27,0.504,8.754,1.512c2.484,1.008,4.553,2.479,6.205,4.412s2.883,4.324,3.691,7.172S221.469,30.38,221.469,34.06z
		 M215.07,34.481c0-2.578-0.229-4.975-0.685-7.189s-1.217-4.136-2.282-5.766c-1.065-1.629-2.487-2.9-4.266-3.814
		s-3.979-1.371-6.601-1.371c-2.622,0-4.822,0.492-6.601,1.477c-1.779,0.984-3.225,2.297-4.336,3.938
		c-1.112,1.641-1.908,3.557-2.388,5.748c-0.48,2.192-0.72,4.495-0.72,6.908c0,2.672,0.222,5.133,0.667,7.383
		c0.445,2.25,1.193,4.189,2.247,5.818c1.054,1.629,2.464,2.895,4.231,3.797c1.767,0.902,3.985,1.354,6.653,1.354
		c2.645,0,4.869-0.492,6.671-1.477c1.802-0.984,3.253-2.314,4.354-3.99c1.1-1.675,1.884-3.615,2.352-5.818
		C214.836,39.275,215.07,36.942,215.07,34.481z"/>
	<path fill="#808080" d="M261.406,50.899c0,0.375-0.012,0.703-0.035,0.984c-0.023,0.281-0.065,0.527-0.123,0.738
		c-0.059,0.211-0.135,0.399-0.229,0.563c-0.094,0.164-0.258,0.364-0.492,0.598c-0.234,0.234-0.727,0.592-1.477,1.072
		c-0.75,0.48-1.682,0.949-2.795,1.406c-1.113,0.457-2.391,0.844-3.832,1.16s-3.018,0.475-4.729,0.475
		c-2.953,0-5.62-0.492-7.998-1.477c-2.379-0.984-4.407-2.438-6.082-4.359c-1.676-1.921-2.965-4.294-3.867-7.119
		c-0.902-2.824-1.354-6.076-1.354-9.756c0-3.773,0.486-7.137,1.459-10.09c0.972-2.953,2.338-5.455,4.096-7.506
		c1.758-2.051,3.861-3.615,6.311-4.693c2.449-1.078,5.162-1.617,8.139-1.617c1.313,0,2.589,0.123,3.832,0.369
		c1.242,0.246,2.391,0.557,3.445,0.932c1.055,0.375,1.992,0.809,2.813,1.301c0.82,0.492,1.389,0.896,1.705,1.213
		s0.521,0.557,0.615,0.721c0.093,0.164,0.17,0.357,0.229,0.58c0.058,0.223,0.105,0.487,0.141,0.791
		c0.035,0.305,0.053,0.668,0.053,1.09c0,0.469-0.023,0.867-0.071,1.195c-0.047,0.329-0.118,0.604-0.212,0.826
		c-0.095,0.223-0.206,0.387-0.336,0.492c-0.129,0.105-0.289,0.158-0.477,0.158c-0.33,0-0.79-0.229-1.378-0.686
		c-0.589-0.457-1.35-0.961-2.28-1.512c-0.931-0.55-2.062-1.055-3.393-1.512c-1.332-0.457-2.928-0.686-4.789-0.686
		c-2.027,0-3.87,0.404-5.531,1.213s-3.082,1.999-4.259,3.568c-1.178,1.57-2.091,3.486-2.739,5.748
		c-0.648,2.262-0.972,4.846-0.972,7.752c0,2.883,0.312,5.432,0.937,7.646c0.624,2.215,1.52,4.066,2.686,5.555
		c1.167,1.489,2.598,2.614,4.294,3.375c1.696,0.762,3.616,1.143,5.761,1.143c1.814,0,3.399-0.223,4.753-0.668
		c1.354-0.445,2.509-0.943,3.463-1.494c0.954-0.55,1.738-1.049,2.351-1.494c0.612-0.445,1.095-0.668,1.449-0.668
		c0.165,0,0.307,0.035,0.424,0.105c0.118,0.07,0.212,0.206,0.283,0.404c0.07,0.199,0.124,0.475,0.159,0.826
		S261.406,50.36,261.406,50.899z"/>
</g>
</svg>
