<?xml version="1.0" encoding="utf-8"?>
<!-- Generator: Adobe Illustrator 15.0.0, SVG Export Plug-In . SVG Version: 6.00 Build 0)  -->
<!DOCTYPE svg PUBLIC "-//W3C//DTD SVG 1.1//EN" "http://www.w3.org/Graphics/SVG/1.1/DTD/svg11.dtd">
<svg version="1.1" id="Layer_1" xmlns="http://www.w3.org/2000/svg" xmlns:xlink="http://www.w3.org/1999/xlink" x="0px" y="0px"
	 width="275.333px" height="64.667px" viewBox="0 0 275.333 64.667" enable-background="new 0 0 275.333 64.667"
	 xml:space="preserve">
<g>
	<path fill="#666666" d="M27.642,11.398c-3.195,1.156-3.468,3.196-3.468,4.896v35.22c0,1.7,0.272,3.74,3.468,4.896v3.944
		C13.227,59.061,6.496,47.434,6.496,33.903c0-13.53,6.731-25.157,21.146-26.449V11.398z M30.701,56.409
		c3.196-1.156,3.468-3.195,3.468-4.896v-35.22c0-1.7-0.272-3.74-3.468-4.896V7.454c14.415,1.292,21.146,12.919,21.146,26.449
		c0,13.531-6.731,25.158-21.146,26.45V56.409z"/>
	<path fill="#E4001C" d="M65.723,60.353c-4.216,0-7.344-3.4-7.344-7.343c0-3.944,3.128-7.343,7.344-7.343
		c4.215,0,7.343,3.399,7.343,7.343C73.065,56.953,69.938,60.353,65.723,60.353z"/>
	<path fill="#666666" d="M100.333,59.333H83.063c-1.496,0-3.196-0.136-3.196-2.108c0-0.952,0.612-1.564,1.496-1.835
		c2.38-0.748,2.312-1.156,2.312-3.672V16.089c0-1.02,0.136-2.856-1.156-3.264c-1.36-0.476-2.652-0.68-2.652-2.38
		c0-1.768,1.7-1.972,3.06-1.972h17.406V59.333z M103.393,8.474c11.559-0.136,21.214,7.887,22.03,25.429
		c0.748,15.979-10.743,25.43-22.03,25.43V55.39c4.147-0.544,4.352-4.42,4.352-7.003V19.421c0-2.583-0.204-6.459-4.352-7.003V8.474z"
		/>
	<path fill="#E4001C" d="M139.91,60.353c-4.216,0-7.344-3.4-7.344-7.343c0-3.944,3.128-7.343,7.344-7.343
		c4.215,0,7.343,3.399,7.343,7.343C147.253,56.953,144.125,60.353,139.91,60.353z"/>
	<path fill="#666666" d="M175.813,51.718c0,2.516-0.068,2.924,2.312,3.672c0.884,0.271,1.496,0.884,1.496,1.835
		c0,1.972-2.244,2.108-2.516,2.108h-19.242c-0.271,0-2.516-0.136-2.516-2.108c0-0.952,0.612-1.564,1.496-1.835
		c2.38-0.748,2.312-1.156,2.312-3.672V16.089c0-2.516,0.068-2.924-2.312-3.671c-0.884-0.272-1.496-0.884-1.496-1.836
		c0-1.972,2.244-2.108,2.516-2.108h19.242c0.272,0,2.516,0.136,2.516,2.108c0,0.952-0.612,1.563-1.496,1.836
		c-2.38,0.748-2.312,1.156-2.312,3.671V51.718z"/>
	<path fill="#E4001C" d="M195.058,60.353c-4.216,0-7.344-3.4-7.344-7.343c0-3.944,3.128-7.343,7.344-7.343
		c4.215,0,7.343,3.399,7.343,7.343C202.4,56.953,199.273,60.353,195.058,60.353z"/>
	<path fill="#666666" d="M227.696,11.398c-2.584,0.884-4.828,2.788-4.828,5.575c0,3.332,1.835,5.372,9.927,8.5
		c12.035,4.623,14.754,11.015,14.754,17.27c0,10.539-8.771,17.406-18.834,17.61v-3.944c3.264-1.02,6.052-2.516,6.188-6.255
		c0.136-4.284-4.896-6.051-8.159-7.479c-8.567-3.604-16.522-7.479-16.522-18.154c0-10.335,7.479-16.727,17.475-17.066V11.398z
		 M210.222,44.103c0-1.428,0.272-3.332,2.176-3.332c1.36,0,2.312,1.088,2.516,2.244c0.952,5.439,4.76,12.171,10.743,13.395v3.944
		c-5.916-0.136-7.207-2.516-9.655-2.516c-2.176,0-1.972,2.244-3.671,2.244c-2.108,0-2.108-2.516-2.108-2.856V44.103z
		 M245.714,22.141c0,1.564-0.272,3.264-2.244,3.264c-1.632,0-2.244-1.292-2.448-2.651c-0.748-5.032-4.963-10.199-10.267-11.355
		V7.454c4.283,0.068,8.839,2.652,9.587,2.652c1.768,0,1.632-2.448,3.399-2.448c2.108,0,1.972,2.312,1.972,2.855V22.141z"/>
	<path fill="#E4001C" d="M262.717,60.353c-4.216,0-7.344-3.4-7.344-7.343c0-3.944,3.128-7.343,7.344-7.343
		c4.215,0,7.343,3.399,7.343,7.343C270.06,56.953,266.932,60.353,262.717,60.353z"/>
</g>
</svg>
