<?xml version="1.0" encoding="utf-8"?>
<!-- Generator: Adobe Illustrator 15.0.0, SVG Export Plug-In . SVG Version: 6.00 Build 0)  -->
<!DOCTYPE svg PUBLIC "-//W3C//DTD SVG 1.1//EN" "http://www.w3.org/Graphics/SVG/1.1/DTD/svg11.dtd">
<svg version="1.1" id="Layer_1" xmlns="http://www.w3.org/2000/svg" xmlns:xlink="http://www.w3.org/1999/xlink" x="0px" y="0px"
	 width="258.333px" height="64.667px" viewBox="0 0 258.333 64.667" enable-background="new 0 0 258.333 64.667"
	 xml:space="preserve">
<g>
	<path fill="#808080" d="M23.175,11.721h-6.379V5.879h6.379V11.721z M22.822,55.008h-5.642V18.936h5.642V55.008z"/>
	<path fill="#808080" d="M62.15,55.008h-5.642V34.801c0-4.681-0.62-7.783-1.859-9.305c-1.24-1.521-3.281-2.282-6.123-2.282
		c-3.355,0-6.914,1.554-10.675,4.661v27.134H32.21V18.936h5.642v4.341c4.252-3.575,8.452-5.363,12.598-5.363
		c3.739,0,6.625,1.165,8.655,3.496c2.03,2.33,3.045,5.698,3.045,10.104V55.008z"/>
	<path fill="#4D4D4D" d="M68.332,52.588v-8.575h0.918c2.015,1.649,4.333,2.957,6.951,3.925c2.618,0.968,5.133,1.452,7.545,1.452
		c2.501,0,4.517-0.448,6.046-1.344c1.53-0.896,2.295-2.141,2.295-3.737c0-1.236-0.365-2.222-1.093-2.957
		c-0.729-0.734-2.11-1.344-4.144-1.828c-1.458-0.269-3.946-0.797-7.464-1.586c-3.519-0.789-6.2-2.173-8.044-4.153
		c-1.845-1.98-2.767-4.512-2.767-7.594c0-3.674,1.574-6.662,4.724-8.965c3.149-2.302,7.199-3.454,12.148-3.454
		c5.039,0,9.772,0.914,14.199,2.742v8.199h-0.891c-3.779-3.046-8.117-4.57-13.011-4.57c-2.322,0-4.234,0.43-5.736,1.29
		c-1.503,0.86-2.254,2.034-2.254,3.521c0,1.273,0.428,2.285,1.282,3.038c0.855,0.752,2.317,1.371,4.387,1.854
		c2.069,0.376,4.377,0.874,6.924,1.492c2.546,0.618,4.445,1.313,5.696,2.083c1.25,0.771,2.25,1.608,2.997,2.513
		c0.747,0.905,1.304,1.913,1.673,3.024c0.369,1.111,0.554,2.338,0.554,3.683c0,3.943-1.616,7.115-4.846,9.516
		c-3.23,2.402-7.509,3.603-12.836,3.603C78.401,55.761,73.317,54.703,68.332,52.588z"/>
	<path fill="#4D4D4D" d="M126.879,55.008h-22.189v-6.048h6.641V20.545h-6.641v-6.049h22.189v6.049h-6.641v28.414h6.641V55.008z"/>
	<path fill="#4D4D4D" d="M166.908,52.508c-5.471,2.24-10.627,3.36-15.468,3.36c-6.731,0-11.99-1.855-15.778-5.564
		c-3.789-3.71-5.682-8.907-5.682-15.592c0-6.434,1.939-11.541,5.817-15.323c3.878-3.781,9.165-5.672,15.859-5.672
		c5.039,0,10.087,1.192,15.144,3.575v8.226h-0.945c-3.185-2.366-5.786-3.867-7.801-4.503c-2.016-0.636-3.959-0.954-5.831-0.954
		c-3.959,0-7.095,1.286-9.407,3.857c-2.313,2.572-3.469,6.116-3.469,10.632c0,4.911,1.192,8.652,3.577,11.223
		c2.384,2.572,5.844,3.857,10.379,3.857c1.745,0,3.374-0.224,4.886-0.672v-9.221h-9.097v-6.452h17.816V52.508z"/>
	<path fill="#4D4D4D" d="M208.988,55.008h-8.908V36.567h-17.087v18.441h-8.908V14.497h8.908V29.9h17.087V14.497h8.908V55.008z"/>
	<path fill="#4D4D4D" d="M248.585,21.217h-13.362v33.791h-8.908V21.217h-13.362v-6.721h35.633V21.217z"/>
</g>
<g>
</g>
<g>
</g>
<circle fill="#E4001C" cx="20.337" cy="9.33" r="6.67"/>
</svg>
