<?xml version="1.0" encoding="utf-8"?>
<!-- Generator: Adobe Illustrator 15.0.0, SVG Export Plug-In . SVG Version: 6.00 Build 0)  -->
<!DOCTYPE svg PUBLIC "-//W3C//DTD SVG 1.1//EN" "http://www.w3.org/Graphics/SVG/1.1/DTD/svg11.dtd">
<svg version="1.1" id="Layer_1" xmlns="http://www.w3.org/2000/svg" xmlns:xlink="http://www.w3.org/1999/xlink" x="0px" y="0px"
	 width="258.333px" height="64.667px" viewBox="0 0 258.333 64.667" enable-background="new 0 0 258.333 64.667"
	 xml:space="preserve">
<g>
	<path fill="#666666" d="M28.378,9.569c-2.923,1.224-3.172,3.384-3.172,5.184v37.299c0,1.8,0.249,3.96,3.172,5.185v4.176
		C15.192,60.045,9.035,47.732,9.035,33.403c0-14.33,6.157-26.643,19.343-28.011V9.569z M31.177,57.237
		c2.923-1.224,3.172-3.384,3.172-5.185V14.753c0-1.8-0.249-3.96-3.172-5.184V5.392C44.362,6.76,50.519,19.073,50.519,33.403
		c0,14.329-6.157,26.642-19.342,28.01V57.237z"/>
	<path fill="#E4001C" d="M63.208,61.413c-3.856,0-6.717-3.6-6.717-7.777c0-4.176,2.861-7.776,6.717-7.776
		c3.856,0,6.717,3.6,6.717,7.776C69.925,57.813,67.064,61.413,63.208,61.413z"/>
	<path fill="#666666" d="M94.865,60.333H79.067c-1.368,0-2.923-0.144-2.923-2.232c0-1.008,0.56-1.656,1.368-1.944
		c2.177-0.792,2.115-1.224,2.115-3.888V14.537c0-1.08,0.124-3.024-1.058-3.457c-1.244-0.504-2.425-0.72-2.425-2.52
		c0-1.872,1.555-2.088,2.799-2.088h15.922V60.333z M97.664,6.472c10.573-0.144,19.405,8.353,20.151,26.931
		c0.684,16.921-9.827,26.93-20.151,26.93v-4.176c3.794-0.576,3.98-4.681,3.98-7.417V18.065c0-2.736-0.187-6.841-3.98-7.417V6.472z"
		/>
	<path fill="#E4001C" d="M131.063,61.413c-3.856,0-6.717-3.6-6.717-7.777c0-4.176,2.861-7.776,6.717-7.776s6.717,3.6,6.717,7.776
		C137.78,57.813,134.918,61.413,131.063,61.413z"/>
	<path fill="#666666" d="M163.902,52.269c0,2.664-0.063,3.096,2.114,3.888c0.809,0.288,1.369,0.936,1.369,1.944
		c0,2.088-2.053,2.232-2.301,2.232h-17.601c-0.249,0-2.301-0.144-2.301-2.232c0-1.008,0.56-1.656,1.368-1.944
		c2.177-0.792,2.115-1.224,2.115-3.888V14.537c0-2.664,0.062-3.096-2.115-3.888c-0.809-0.288-1.368-0.937-1.368-1.944
		c0-2.088,2.052-2.232,2.301-2.232h17.601c0.249,0,2.301,0.144,2.301,2.232c0,1.008-0.56,1.656-1.369,1.944
		c-2.177,0.792-2.114,1.224-2.114,3.888V52.269z"/>
	<path fill="#E4001C" d="M181.502,61.413c-3.856,0-6.717-3.6-6.717-7.777c0-4.176,2.861-7.776,6.717-7.776
		c3.856,0,6.717,3.6,6.717,7.776C188.22,57.813,185.359,61.413,181.502,61.413z"/>
	<path fill="#666666" d="M211.356,9.569c-2.364,0.936-4.416,2.952-4.416,5.904c0,3.528,1.679,5.688,9.081,9.001
		c11.008,4.896,13.496,11.665,13.496,18.29c0,11.161-8.023,18.434-17.228,18.649v-4.176c2.985-1.08,5.536-2.665,5.66-6.625
		c0.125-4.537-4.478-6.409-7.463-7.921c-7.837-3.816-15.114-7.92-15.114-19.226c0-10.945,6.842-17.713,15.984-18.074V9.569z
		 M195.372,44.204c0-1.512,0.249-3.528,1.99-3.528c1.244,0,2.115,1.152,2.301,2.376c0.871,5.76,4.354,12.889,9.827,14.185v4.176
		c-5.411-0.144-6.593-2.664-8.832-2.664c-1.99,0-1.804,2.376-3.358,2.376c-1.928,0-1.928-2.664-1.928-3.024V44.204z M227.838,20.946
		c0,1.656-0.249,3.456-2.052,3.456c-1.493,0-2.053-1.368-2.239-2.808c-0.684-5.329-4.54-10.801-9.391-12.025V5.392
		c3.918,0.072,8.085,2.809,8.769,2.809c1.617,0,1.493-2.592,3.11-2.592c1.928,0,1.804,2.448,1.804,3.024V20.946z"/>
	<path fill="#E4001C" d="M243.387,61.413c-3.856,0-6.717-3.6-6.717-7.777c0-4.176,2.861-7.776,6.717-7.776s6.717,3.6,6.717,7.776
		C250.104,57.813,247.243,61.413,243.387,61.413z"/>
</g>
<g>
</g>
<g>
</g>
</svg>
