<?xml version="1.0" encoding="utf-8"?>
<!-- Generator: Adobe Illustrator 15.0.0, SVG Export Plug-In . SVG Version: 6.00 Build 0)  -->
<!DOCTYPE svg PUBLIC "-//W3C//DTD SVG 1.1//EN" "http://www.w3.org/Graphics/SVG/1.1/DTD/svg11.dtd">
<svg version="1.1" id="Layer_1" xmlns="http://www.w3.org/2000/svg" xmlns:xlink="http://www.w3.org/1999/xlink" x="0px" y="0px"
	 width="296.667px" height="64.667px" viewBox="0 0 296.667 64.667" enable-background="new 0 0 296.667 64.667"
	 xml:space="preserve">
<g>
	<path fill="#808080" d="M49.735,13.744L39.226,52.008h-4.159L26.5,20.219l-8.492,31.789h-4.034L3.34,13.744h4.757l8.243,30.697
		l8.144-30.697h4.358l8.144,30.977l8.218-30.977H49.735z"/>
	<path fill="#808080" d="M69.629,52.008v-3.199c-2.341,1.727-4.267,2.823-5.777,3.288s-3.047,0.698-4.607,0.698
		c-2.507,0-4.591-0.846-6.251-2.539c-1.66-1.692-2.49-3.842-2.49-6.449c0-3.334,1.233-5.844,3.698-7.528
		c2.465-1.684,7.608-2.687,15.427-3.009v-0.863c0-1.997-0.581-3.474-1.743-4.431c-1.162-0.956-3.204-1.435-6.126-1.435
		c-2.574,0-5.438,0.677-8.592,2.031h-0.199v-4.646c3.104-0.863,6.093-1.295,8.965-1.295c4.167,0,7.218,0.792,9.152,2.374
		c1.934,1.583,2.901,4.042,2.901,7.376v19.627H69.629z M69.629,45.178V36.85c-6.192,0.288-10.173,0.986-11.941,2.095
		c-1.768,1.109-2.652,2.637-2.652,4.583c0,3.437,2.042,5.154,6.126,5.154C63.935,48.682,66.757,47.514,69.629,45.178z"/>
	<path fill="#808080" d="M89.896,52.566c-5.811,0-8.716-3.258-8.716-9.775V26.973h-3.212v-3.656h3.237v-8.252h4.358v8.252h9.861
		v3.656h-9.861v13.279c0,3.013,0.203,4.964,0.61,5.853s1.025,1.541,1.855,1.955c0.83,0.415,1.893,0.622,3.188,0.622
		c1.229,0,2.582-0.305,4.059-0.914h0.149v4.063C93.449,52.321,91.606,52.566,89.896,52.566z"/>
	<path fill="#808080" d="M119.552,50.256c-3.371,1.608-6.309,2.412-8.816,2.412c-4.333,0-7.699-1.295-10.098-3.885
		c-2.399-2.59-3.599-6.28-3.599-11.07c0-4.688,1.237-8.379,3.71-11.07s5.811-4.037,10.011-4.037c2.772,0,5.703,0.787,8.791,2.361
		v4.977h-0.199c-3.105-2.319-6.002-3.479-8.691-3.479c-2.873,0-5.105,0.974-6.699,2.92c-1.594,1.947-2.391,4.723-2.391,8.328
		s0.793,6.356,2.378,8.252c1.585,1.896,3.823,2.844,6.711,2.844c2.772,0,5.669-1.143,8.691-3.428h0.199V50.256z"/>
	<path fill="#808080" d="M146.992,52.008h-4.383V35.961c0-3.741-0.482-6.216-1.444-7.427c-0.963-1.21-2.549-1.815-4.757-1.815
		c-2.59,0-5.354,1.228-8.292,3.682v21.607h-4.383V12.043h4.383v14.701c3.287-2.827,6.549-4.24,9.787-4.24
		c2.905,0,5.146,0.927,6.724,2.78c1.577,1.854,2.366,4.532,2.366,8.036V52.008z"/>
</g>
<g>
</g>
<g>
</g>
<g>
	<path fill="#808080" d="M190.044,52.795c-4.001,0-7.164-1.35-9.488-4.05c-2.324-2.7-3.486-6.386-3.486-11.058
		s1.17-8.37,3.511-11.096c2.341-2.725,5.495-4.088,9.463-4.088c3.968,0,7.123,1.354,9.463,4.063
		c2.341,2.708,3.511,6.416,3.511,11.121c0,4.706-1.167,8.4-3.499,11.083C197.187,51.454,194.028,52.795,190.044,52.795z
		 M190.044,26.313c-2.706,0-4.79,0.974-6.25,2.92c-1.461,1.947-2.192,4.765-2.192,8.455c0,3.64,0.73,6.433,2.192,8.379
		c1.46,1.947,3.544,2.92,6.25,2.92s4.79-0.973,6.251-2.92c1.46-1.946,2.191-4.739,2.191-8.379
		C198.486,30.104,195.672,26.313,190.044,26.313z"/>
	<path fill="#808080" d="M244.952,23.316l-8.642,28.691h-3.163l-7.794-22.268l-8.293,22.268h-3.163l-8.442-28.691h4.557
		l6.052,21.582l7.77-21.582h3.313l7.396,21.582l6.027-21.582H244.952z"/>
	<path fill="#808080" d="M262.156,52.668c-4.682,0-8.313-1.291-10.895-3.872c-2.582-2.581-3.873-6.233-3.873-10.956
		c0-4.688,1.237-8.417,3.71-11.185s5.753-4.151,9.837-4.151c3.719,0,6.604,1.134,8.654,3.402c2.05,2.269,3.076,5.501,3.076,9.699
		v2.463h-20.794c0,3.453,0.917,6.106,2.752,7.96s4.371,2.78,7.608,2.78c3.221,0,6.441-1.143,9.663-3.428h0.199v4.85
		C268.091,51.855,264.779,52.668,262.156,52.668z M251.871,34.691h16.511c-0.133-5.704-2.698-8.557-7.695-8.557
		c-2.524,0-4.566,0.762-6.126,2.285C253,29.943,252.103,32.034,251.871,34.691z"/>
	<path fill="#808080" d="M277.667,52.008V23.316h4.383v4.418c3.52-2.945,6.765-4.418,9.737-4.418c1.046,0,2.1,0.085,3.163,0.254
		v4.672h-0.174c-1.378-0.338-2.773-0.508-4.184-0.508c-2.823,0-5.669,1.219-8.542,3.656v20.617H277.667z"/>
</g>
<g>
	<polygon fill="#E4001C" points="154.225,52.333 170.598,52.333 166.819,24.333 158.002,24.333 	"/>
	<polygon fill="#E4001C" points="173,24.333 151,24.333 151,19.333 154,18.333 154,21.333 170,21.333 170,18.333 173,19.333 	"/>
	<polygon fill="#E4001C" points="175,18.899 161.936,14.99 149,18.899 149,15.127 161.936,11.219 175,15.127 	"/>
</g>
</svg>
