<?xml version="1.0" encoding="utf-8"?>
<!-- Generator: Adobe Illustrator 15.0.0, SVG Export Plug-In . SVG Version: 6.00 Build 0)  -->
<!DOCTYPE svg PUBLIC "-//W3C//DTD SVG 1.1//EN" "http://www.w3.org/Graphics/SVG/1.1/DTD/svg11.dtd">
<svg version="1.1" id="Layer_1" xmlns="http://www.w3.org/2000/svg" xmlns:xlink="http://www.w3.org/1999/xlink" x="0px" y="0px"
	 width="275.333px" height="64.667px" viewBox="0 0 275.333 64.667" enable-background="new 0 0 275.333 64.667"
	 xml:space="preserve">
<g>
</g>
<g>
	<path fill="#E4001C" d="M87.397,1.927v1.216C85.302,3.59,83.66,4.009,82.473,4.4C81.285,4.792,79.88,5.588,78.26,6.79
		c-1.621,1.202-3.297,2.962-5.03,5.281L61.369,27.788l16.556,24.897c1.174,1.761,2.382,3.312,3.626,4.652
		c1.243,1.342,2.64,2.48,4.191,3.416c1.551,0.937,3.192,1.502,4.925,1.697v1.216H56.549v-1.216c5.057,0,7.586-1.396,7.586-4.191
		c0-0.587-0.133-1.18-0.398-1.781c-0.266-0.601-0.733-1.376-1.404-2.326L52.441,39.44L41.292,54.152
		c-1.146,1.705-1.719,3.13-1.719,4.275c0,1.537,0.545,2.55,1.635,3.039s2.375,0.817,3.856,0.984v1.216h-24.31v-1.216
		c2.403-0.111,4.59-0.643,6.56-1.593c1.97-0.949,3.556-1.97,4.757-3.06c1.201-1.09,2.961-2.821,5.281-5.197l0.503-0.796
		l12.197-15.886L33.916,11.567c-1.174-1.844-2.404-3.388-3.688-4.631c-1.286-1.243-2.438-2.123-3.458-2.641
		c-1.021-0.517-1.928-0.838-2.724-0.964c-0.796-0.126-1.516-0.188-2.159-0.188V1.927h32.022v1.216c-3.604,0-5.407,1.229-5.407,3.688
		c0,0.56,0.132,1.181,0.398,1.865c0.266,0.685,0.79,1.642,1.572,2.871l8.509,12.616l8.215-10.814c0-0.083,0.098-0.195,0.293-0.335
		c1.704-2.347,2.557-4.275,2.557-5.784c0-1.537-0.51-2.55-1.53-3.039c-1.02-0.488-2.34-0.845-3.96-1.068V1.927H87.397z"/>
	<path d="M93.957,17.896v-0.534h15.183c2.536,0,4.773,0.346,6.711,1.037c1.938,0.692,3.552,1.635,4.841,2.829
		c1.289,1.195,2.252,2.542,2.892,4.04c0.639,1.499,0.958,3.076,0.958,4.731c0,1.613-0.298,3.17-0.896,4.668
		c-0.597,1.498-1.535,2.829-2.813,3.992s-2.955,2.091-5.029,2.782c-2.075,0.691-4.464,1.037-7.167,1.037
		c-0.859,0-2.515-0.126-4.967-0.377v15.969c0,3.291,1.676,4.988,5.03,5.093v0.503H93.957v-0.503
		c1.446-0.042,2.635-0.456,3.568-1.242c0.932-0.785,1.399-2.069,1.399-3.851V23.052c0-1.069-0.168-1.959-0.503-2.672
		c-0.336-0.712-0.729-1.221-1.179-1.524s-0.954-0.529-1.509-0.676c-0.556-0.146-0.938-0.24-1.147-0.283H93.957z M103.67,18.997
		v21.816c1.613,0.294,3.207,0.44,4.778,0.44c2.997,0,5.538-0.771,7.623-2.311c2.085-1.541,3.128-4.396,3.128-8.566
		c0-3.437-0.917-6.261-2.751-8.472c-1.834-2.211-4.616-3.317-8.346-3.317C106.657,18.588,105.179,18.725,103.67,18.997z"/>
	<path d="M129.228,18.022h-0.628v-0.66h16.032c2.578,0,4.763,0.398,6.554,1.194c1.792,0.797,3.185,1.808,4.181,3.034
		c0.995,1.226,1.708,2.52,2.138,3.882c0.429,1.362,0.645,2.703,0.645,4.023c0,1.677-0.352,3.285-1.054,4.826
		c-0.702,1.54-1.781,2.866-3.237,3.977c-1.457,1.11-3.275,1.865-5.454,2.263v0.126c2.766,1.342,5.323,4.003,7.67,7.984l4.181,7.073
		c1.887,3.165,3.4,5.166,4.543,6.004c1.142,0.839,2.269,1.311,3.379,1.415v0.503h-8.425c-0.356-0.461-0.691-0.906-1.006-1.336
		s-0.649-0.885-1.006-1.367c-0.209-0.314-0.519-0.791-0.927-1.431c-0.409-0.639-0.655-1.001-0.739-1.085l-5.532-9.147
		c-1.111-1.865-2.248-3.379-3.411-4.542s-2.248-1.996-3.253-2.499s-1.913-0.817-2.719-0.943s-1.755-0.188-2.845-0.188v16.943
		c0,3.291,1.676,4.988,5.03,5.093v0.503h-14.743v-0.503c0.922-0.042,1.739-0.215,2.452-0.519s1.305-0.828,1.776-1.572
		c0.471-0.743,0.707-1.744,0.707-3.002V23.052c0-1.844-0.451-3.144-1.352-3.898C131.281,18.399,130.296,18.022,129.228,18.022z
		 M138.313,39.901h2.641c2.766,0,5.035-0.397,6.806-1.194c1.771-0.796,3.054-1.933,3.851-3.41c0.796-1.478,1.194-3.285,1.194-5.423
		c0-1.781-0.356-3.526-1.069-5.234c-0.713-1.708-1.923-3.144-3.631-4.307c-1.708-1.164-4.008-1.745-6.9-1.745
		c-1.174,0-2.138,0.095-2.892,0.283V39.901z"/>
	<path d="M170.88,17.896v-0.534h27.6v7.293h-0.439c0-3.898-2.599-5.847-7.796-5.847h-9.651v21.03h8.488
		c1.676,0,3.175-0.272,4.495-0.817s2.074-1.792,2.263-3.74h0.472V45.78h-0.472c-0.188-1.194-0.545-2.111-1.068-2.751
		c-0.524-0.639-1.043-1.063-1.556-1.272c-0.515-0.21-0.97-0.314-1.368-0.314c-0.754-0.126-1.54-0.188-2.357-0.188h-8.896v16.44
		c0,1.236,0.236,2.306,0.708,3.206c0.471,0.901,1.566,1.352,3.284,1.352h6.885c1.655,0,3.018-0.24,4.087-0.723
		c1.068-0.481,1.912-1.152,2.53-2.012s1.137-1.896,1.556-3.112h0.44l-1.604,7.262h-27.6v-0.503h0.628
		c0.985,0,1.949-0.397,2.893-1.194s1.414-2.096,1.414-3.898V23.178c0-1.425-0.319-2.661-0.958-3.709
		c-0.64-1.048-1.756-1.572-3.349-1.572H170.88z"/>
	<path d="M227.558,26.258h-0.503c-0.294-2.242-1.273-4.207-2.939-5.894c-1.666-1.687-3.861-2.531-6.586-2.531
		c-1.781,0-3.363,0.419-4.746,1.258c-1.384,0.838-2.452,1.98-3.207,3.426c-0.754,1.446-1.132,3.102-1.132,4.967
		c0,1.446,0.226,2.73,0.676,3.851c0.451,1.121,1.116,2.111,1.996,2.971c0.881,0.859,1.918,1.661,3.112,2.404
		c1.194,0.744,2.809,1.682,4.842,2.813c3.395,1.865,6.035,3.726,7.921,5.58c1.887,1.854,2.829,4.396,2.829,7.623
		c0,1.97-0.508,3.872-1.524,5.705c-1.017,1.834-2.552,3.338-4.605,4.512c-2.054,1.173-4.6,1.76-7.639,1.76
		c-1.907,0-3.594-0.204-5.061-0.612c-1.468-0.409-2.955-0.979-4.464-1.714c-0.629-0.209-1.059-0.314-1.289-0.314
		c-0.44,0-0.729,0.157-0.864,0.472c-0.137,0.314-0.32,0.996-0.551,2.044h-0.534V52.978h0.534c0.755,3.396,2.222,5.963,4.401,7.702
		s4.83,2.609,7.953,2.609c2.347,0,4.229-0.44,5.643-1.32c1.415-0.881,2.395-1.949,2.939-3.207c0.545-1.257,0.817-2.515,0.817-3.771
		c0-2.599-0.791-4.721-2.374-6.366c-1.582-1.645-3.987-3.326-7.214-5.045c-2.222-1.216-3.866-2.158-4.936-2.829
		c-1.068-0.671-2.153-1.541-3.254-2.609c-1.1-1.069-1.975-2.331-2.624-3.788c-0.65-1.456-0.975-3.128-0.975-5.014
		c0-2.179,0.576-4.264,1.729-6.255c1.152-1.991,2.787-3.589,4.904-4.794c2.116-1.205,4.516-1.808,7.198-1.808
		c2.033,0,4.118,0.346,6.256,1.038c0.335,0.168,0.786,0.251,1.352,0.251c0.691,0,1.163-0.472,1.415-1.415h0.503V26.258z"/>
	<path d="M257.767,26.258h-0.503c-0.294-2.242-1.273-4.207-2.939-5.894c-1.666-1.687-3.861-2.531-6.586-2.531
		c-1.781,0-3.363,0.419-4.746,1.258c-1.384,0.838-2.452,1.98-3.207,3.426c-0.754,1.446-1.132,3.102-1.132,4.967
		c0,1.446,0.226,2.73,0.676,3.851c0.451,1.121,1.116,2.111,1.996,2.971c0.881,0.859,1.918,1.661,3.112,2.404
		c1.194,0.744,2.809,1.682,4.842,2.813c3.395,1.865,6.035,3.726,7.921,5.58c1.887,1.854,2.829,4.396,2.829,7.623
		c0,1.97-0.508,3.872-1.524,5.705c-1.017,1.834-2.552,3.338-4.605,4.512c-2.054,1.173-4.6,1.76-7.639,1.76
		c-1.907,0-3.594-0.204-5.061-0.612c-1.468-0.409-2.955-0.979-4.464-1.714c-0.629-0.209-1.059-0.314-1.289-0.314
		c-0.44,0-0.729,0.157-0.864,0.472c-0.137,0.314-0.32,0.996-0.551,2.044h-0.534V52.978h0.534c0.755,3.396,2.222,5.963,4.401,7.702
		s4.83,2.609,7.953,2.609c2.347,0,4.229-0.44,5.643-1.32c1.415-0.881,2.395-1.949,2.939-3.207c0.545-1.257,0.817-2.515,0.817-3.771
		c0-2.599-0.791-4.721-2.374-6.366c-1.582-1.645-3.987-3.326-7.214-5.045c-2.222-1.216-3.866-2.158-4.936-2.829
		c-1.068-0.671-2.153-1.541-3.254-2.609c-1.1-1.069-1.975-2.331-2.624-3.788c-0.65-1.456-0.975-3.128-0.975-5.014
		c0-2.179,0.576-4.264,1.729-6.255c1.152-1.991,2.787-3.589,4.904-4.794c2.116-1.205,4.516-1.808,7.198-1.808
		c2.033,0,4.118,0.346,6.256,1.038c0.335,0.168,0.786,0.251,1.352,0.251c0.691,0,1.163-0.472,1.415-1.415h0.503V26.258z"/>
</g>
</svg>
